<?xml version="1.0" encoding="UTF-8"?> <svg xmlns="http://www.w3.org/2000/svg" width="1468" height="514" viewBox="0 0 1468 514" fill="none"><path d="M289.625 84.8203C288.792 85.0807 286.031 86.3047 281.344 88.4922C277.307 90.3932 274.69 91.3438 273.492 91.3438H269.586C272.346 90.0677 275.107 88.8047 277.867 87.5547C281.826 85.7318 284.43 84.8203 285.68 84.8203H289.625ZM291.109 89.1562C290.276 89.4167 287.516 90.6406 282.828 92.8281C278.792 94.7292 276.174 95.6797 274.977 95.6797H271.07C273.831 94.4036 276.591 93.1406 279.352 91.8906C283.31 90.0677 285.914 89.1562 287.164 89.1562H291.109ZM280.094 141.578H285.094V149H270.953V141.578V102.125H280.094V141.578ZM295.758 90.5625C295.758 91.8385 295.263 92.9193 294.273 93.8047C293.284 94.6901 292.112 95.1328 290.758 95.1328C289.378 95.1328 288.193 94.7161 287.203 93.8828C286.24 93.0234 285.758 92.0469 285.758 90.9531C285.758 89.651 286.591 88.1406 288.258 86.4219L291.539 83.0625C291.539 84.2344 292.242 85.5234 293.648 86.9297C295.055 88.3359 295.758 89.5469 295.758 90.5625ZM293.18 90.875C293.18 90.3021 292.893 89.7031 292.32 89.0781C291.747 88.4271 291.174 87.8021 290.602 87.2031C290.107 87.75 289.599 88.3099 289.078 88.8828C288.583 89.4297 288.336 89.9896 288.336 90.5625C288.336 92.0208 289.117 92.75 290.68 92.75C291.253 92.75 291.812 92.5677 292.359 92.2031C292.906 91.8125 293.18 91.3698 293.18 90.875ZM299.156 125.719C297.359 125.849 296.37 126.878 296.188 128.805V148.492H298.18C300.237 148.388 301.201 147.294 301.07 145.211V125.719H299.156ZM287.008 131.227C287.294 122.477 292.203 117.984 301.734 117.75H310.367V141.031C310.367 141.214 310.367 141.396 310.367 141.578H313.258V149H309.156C307.073 154.26 302.229 156.734 294.625 156.422H287.008V149H284.117V141.578H287.008V131.227ZM334.273 172.516C333.44 172.776 330.68 174 325.992 176.188C321.956 178.089 319.339 179.039 318.141 179.039H314.234C316.995 177.763 319.755 176.5 322.516 175.25C326.474 173.427 329.078 172.516 330.328 172.516H334.273ZM318.531 102.125H327.672V141.578H333.727V149H312.359V141.578H318.531V102.125ZM335.797 131.148C336.318 126.539 338.583 122.685 342.594 119.586C346.63 116.461 351.214 115.836 356.344 117.711L358.18 125.055C348.466 124.482 343.974 128.049 344.703 135.758C345.224 138.987 347.164 140.927 350.523 141.578H361.344L361.656 149H332.672V141.578H337.711C336.148 139.521 335.51 136.044 335.797 131.148ZM384.43 172.516C383.596 172.776 380.836 174 376.148 176.188C372.112 178.089 369.495 179.039 368.297 179.039H364.391C367.151 177.763 369.911 176.5 372.672 175.25C376.63 173.427 379.234 172.516 380.484 172.516H384.43ZM399.742 90.5625C399.742 91.8385 399.247 92.9193 398.258 93.8047C397.268 94.6901 396.096 95.1328 394.742 95.1328C393.362 95.1328 392.177 94.7161 391.188 93.8828C390.224 93.0234 389.742 92.0469 389.742 90.9531C389.742 89.651 390.576 88.1406 392.242 86.4219L395.523 83.0625C395.523 84.2344 396.227 85.5234 397.633 86.9297C399.039 88.3359 399.742 89.5469 399.742 90.5625ZM397.164 90.875C397.164 90.3021 396.878 89.7031 396.305 89.0781C395.732 88.4271 395.159 87.8021 394.586 87.2031C394.091 87.75 393.583 88.3099 393.062 88.8828C392.568 89.4297 392.32 89.9896 392.32 90.5625C392.32 92.0208 393.102 92.75 394.664 92.75C395.237 92.75 395.797 92.5677 396.344 92.2031C396.891 91.8125 397.164 91.3698 397.164 90.875ZM399.781 126.031C402.099 123.505 405.042 121.461 408.609 119.898C412.203 118.336 416.578 117.568 421.734 117.594V141.578H426.344V149H412.594V127.789C406.734 130.758 402.529 136.148 399.977 143.961L398.922 149H390.328C390.589 140.302 393.74 132.646 399.781 126.031ZM447.008 172.516C446.174 172.776 443.414 174 438.727 176.188C434.69 178.089 432.073 179.039 430.875 179.039H426.969C429.729 177.763 432.49 176.5 435.25 175.25C439.208 173.427 441.812 172.516 443.062 172.516H447.008ZM436.734 117.75H445.875V141.578H449.977V149H425.094V141.578H436.734V117.75ZM425.641 153.102H433.844V161.305H425.641V153.102ZM437.359 153.102H445.562V161.305H437.359V153.102ZM464.664 103.688H472.867V111.891H464.664V103.688ZM470.25 126.109C464.964 125.719 462.164 127.333 461.852 130.953C463.023 135.667 466.174 139.208 471.305 141.578V126.109H470.25ZM453.375 126.227C455.641 120.523 460.654 117.698 468.414 117.75H480.328V141.578V149H448.688V141.578H457.672C452.984 137.307 451.552 132.19 453.375 126.227ZM500.953 88.5312C500.953 89.7031 499.99 90.7188 498.062 91.5781L500.328 93.6094H498.609C497.75 93.6094 496.839 93.2708 495.875 92.5938C495.745 92.6458 494.456 93.2839 492.008 94.5078C490.289 95.3932 488.727 95.8359 487.32 95.8359H483.727C486.539 94.7682 489.885 93.1667 493.766 91.0312L492.75 90.0938C491.812 89.2344 491.344 88.375 491.344 87.5156C491.344 86.5521 491.839 85.6797 492.828 84.8984L497.516 81.1875C497.516 81.8906 498.089 83.1146 499.234 84.8594C500.38 86.6042 500.953 87.8281 500.953 88.5312ZM498.258 88.1406C498.258 86.6823 497.529 85.9531 496.07 85.9531C494.742 85.9531 494.078 86.487 494.078 87.5547C494.078 87.9453 494.781 88.7135 496.188 89.8594C497.568 89.0521 498.258 88.4792 498.258 88.1406ZM529.352 172.516C528.518 172.776 525.758 174 521.07 176.188C517.034 178.089 514.417 179.039 513.219 179.039H509.312C512.073 177.763 514.833 176.5 517.594 175.25C521.552 173.427 524.156 172.516 525.406 172.516H529.352ZM577.281 117.75H586.812V141.578H591.383V149H548.062C547.411 153.271 545.992 156.357 543.805 158.258C541.617 160.159 538.388 160.979 534.117 160.719H523.414C519.456 160.953 516.279 159.82 513.883 157.32C511.487 154.82 510.328 150.12 510.406 143.219V129.469H519.742V146.93C519.846 151.044 521.76 152.997 525.484 152.789H533.141C537.255 152.867 539.234 150.25 539.078 144.938V129.469H548.531V141.578H558.141V123.609H567.672V141.578H577.281V117.75ZM611.148 85.875C610.315 86.1354 607.555 87.3594 602.867 89.5469C598.831 91.4479 596.214 92.3984 595.016 92.3984H591.109C593.87 91.1224 596.63 89.8594 599.391 88.6094C603.349 86.7865 605.953 85.875 607.203 85.875H611.148ZM604.391 125.719C602.594 125.849 601.604 126.878 601.422 128.805V148.492H603.414C605.471 148.388 606.435 147.294 606.305 145.211V125.719H604.391ZM592.242 131.227C592.529 122.477 597.438 117.984 606.969 117.75H615.602V141.031C615.602 141.214 615.602 141.396 615.602 141.578H618.492V149H614.391C612.307 154.26 607.464 156.734 599.859 156.422H592.242V149H589.352V141.578H592.242V131.227ZM629.352 90.5625C629.352 91.8385 628.857 92.9193 627.867 93.8047C626.878 94.6901 625.706 95.1328 624.352 95.1328C622.971 95.1328 621.786 94.7161 620.797 93.8828C619.833 93.0234 619.352 92.0469 619.352 90.9531C619.352 89.651 620.185 88.1406 621.852 86.4219L625.133 83.0625C625.133 84.2344 625.836 85.5234 627.242 86.9297C628.648 88.3359 629.352 89.5469 629.352 90.5625ZM626.773 90.875C626.773 90.3021 626.487 89.7031 625.914 89.0781C625.341 88.4271 624.768 87.8021 624.195 87.2031C623.701 87.75 623.193 88.3099 622.672 88.8828C622.177 89.4297 621.93 89.9896 621.93 90.5625C621.93 92.0208 622.711 92.75 624.273 92.75C624.846 92.75 625.406 92.5677 625.953 92.2031C626.5 91.8125 626.773 91.3698 626.773 90.875ZM628.844 117.75H637.984V141.578V149H617.594V141.578H628.844V117.75ZM618.023 103.688H626.227V111.891H618.023V103.688ZM629.742 103.688H637.945V111.891H629.742V103.688ZM675.406 102.125H684.391V141.578H689.117L689.078 149H684.391C683.74 153.271 682.32 156.357 680.133 158.258C677.945 160.159 674.716 160.979 670.445 160.719H657.008C652.789 160.693 649.547 159.391 647.281 156.812C645.016 154.26 643.922 149.729 644 143.219V129.469H653.336V146.93C653.44 150.784 655.354 152.737 659.078 152.789H669.469C673.714 152.867 675.693 150.25 675.406 144.938V102.125ZM709.82 85.875C708.987 86.1354 706.227 87.3594 701.539 89.5469C697.503 91.4479 694.885 92.3984 693.688 92.3984H689.781C692.542 91.1224 695.302 89.8594 698.062 88.6094C702.021 86.7865 704.625 85.875 705.875 85.875H709.82ZM698.766 117.75H707.906V141.578V149H687.906V141.578H698.766V117.75ZM688.258 153.102H696.461V161.305H688.258V153.102ZM699.977 153.102H708.18V161.305H699.977V153.102ZM757.906 84.8203C757.073 85.0807 754.312 86.3047 749.625 88.4922C745.589 90.3932 742.971 91.3438 741.773 91.3438H737.867C740.628 90.0677 743.388 88.8047 746.148 87.5547C750.107 85.7318 752.711 84.8203 753.961 84.8203H757.906ZM759.391 89.1562C758.557 89.4167 755.797 90.6406 751.109 92.8281C747.073 94.7292 744.456 95.6797 743.258 95.6797H739.352C742.112 94.4036 744.872 93.1406 747.633 91.8906C751.591 90.0677 754.195 89.1562 755.445 89.1562H759.391ZM748.375 149H739.234V102.125H748.375V149ZM770.992 103.688H779.195V111.891H770.992V103.688ZM781.93 103.688H790.133V111.891H781.93V103.688ZM784.625 126.109H783.609C778.323 125.719 775.523 127.333 775.211 130.953C775.94 135.562 779.078 138.714 784.625 140.406V126.109ZM767.125 126.227C769.391 120.263 774.273 117.438 781.773 117.75H793.609V141.578H797.438V149H793.609C793.401 153.167 792.086 156.227 789.664 158.18C787.268 160.133 783.935 160.979 779.664 160.719H766.617C761.357 160.693 757.789 159.391 755.914 156.812C754.039 154.26 753.141 149.99 753.219 144V129.469H762.555V146.93C762.659 150.784 764.312 152.737 767.516 152.789H780.25C782.594 152.503 783.961 151.24 784.352 149C776.956 147.359 771.448 143.674 767.828 137.945L767.945 137.984C765.862 134.547 765.589 130.628 767.125 126.227ZM807.867 90.5625C807.867 91.8385 807.372 92.9193 806.383 93.8047C805.393 94.6901 804.221 95.1328 802.867 95.1328C801.487 95.1328 800.302 94.7161 799.312 93.8828C798.349 93.0234 797.867 92.0469 797.867 90.9531C797.867 89.651 798.701 88.1406 800.367 86.4219L803.648 83.0625C803.648 84.2344 804.352 85.5234 805.758 86.9297C807.164 88.3359 807.867 89.5469 807.867 90.5625ZM805.289 90.875C805.289 90.3021 805.003 89.7031 804.43 89.0781C803.857 88.4271 803.284 87.8021 802.711 87.2031C802.216 87.75 801.708 88.3099 801.188 88.8828C800.693 89.4297 800.445 89.9896 800.445 90.5625C800.445 92.0208 801.227 92.75 802.789 92.75C803.362 92.75 803.922 92.5677 804.469 92.2031C805.016 91.8125 805.289 91.3698 805.289 90.875ZM818.023 172.516C817.19 172.776 814.43 174 809.742 176.188C805.706 178.089 803.089 179.039 801.891 179.039H797.984C800.745 177.763 803.505 176.5 806.266 175.25C810.224 173.427 812.828 172.516 814.078 172.516H818.023ZM806.969 117.75H816.109V141.578V149H796.109V141.578H806.969V117.75ZM796.461 153.102H804.664V161.305H796.461V153.102ZM808.18 153.102H816.383V161.305H808.18V153.102ZM841.539 85.875C840.706 86.1354 837.945 87.3594 833.258 89.5469C829.221 91.4479 826.604 92.3984 825.406 92.3984H821.5C824.26 91.1224 827.021 89.8594 829.781 88.6094C833.74 86.7865 836.344 85.875 837.594 85.875H841.539ZM835.211 117.75V141.578H839.078V149H834.742C833.258 157.177 828.349 161.083 820.016 160.719V152.75C824.312 152.724 826.448 149.742 826.422 143.805V117.75H835.211ZM842.984 102.125H851.734V117.75H872.047C874.469 117.802 876.37 118.128 877.75 118.727C879.156 119.299 880.562 120.406 881.969 122.047C883.375 123.688 884.299 126.031 884.742 129.078V141.578V149H837.594V141.578H842.984V102.125ZM851.734 125.562V141.578H874.977V130.133C874.742 127.477 873.167 125.953 870.25 125.562H851.734ZM908.57 85.875C907.737 86.1354 904.977 87.3594 900.289 89.5469C896.253 91.4479 893.635 92.3984 892.438 92.3984H888.531C891.292 91.1224 894.052 89.8594 896.812 88.6094C900.771 86.7865 903.375 85.875 904.625 85.875H908.57ZM934.039 85.875C933.206 86.1354 930.445 87.3594 925.758 89.5469C921.721 91.4479 919.104 92.3984 917.906 92.3984H914C916.76 91.1224 919.521 89.8594 922.281 88.6094C926.24 86.7865 928.844 85.875 930.094 85.875H934.039ZM941.031 120.055V125.328H939.508V129.508H950.445V125.328H944.156V121.891C944.104 120.901 944.573 120.419 945.562 120.445H950.445V116.109H943.414C941.617 117.047 940.823 118.362 941.031 120.055ZM965.562 102.125H974.703V141.578H978.453V149H932.633C921.461 149.703 915.406 145.406 914.469 136.109V121.656H923.258V131.422C923.18 137.255 925.341 140.641 929.742 141.578H965.562V102.125ZM999.039 85.875C998.206 86.1354 995.445 87.3594 990.758 89.5469C986.721 91.4479 984.104 92.3984 982.906 92.3984H979C981.76 91.1224 984.521 89.8594 987.281 88.6094C991.24 86.7865 993.844 85.875 995.094 85.875H999.039ZM983.297 102.125H992.438V141.578H998.492V149H977.125V141.578H983.297V102.125ZM1027.83 123.609H1037.36V141.578H1046.97V117.75H1056.5V141.578V149H997.438V141.578H1008.69V129.469H1018.22V141.578H1027.83V123.609ZM1095.29 90.5625C1095.29 91.8385 1094.79 92.9193 1093.8 93.8047C1092.82 94.6901 1091.64 95.1328 1090.29 95.1328C1088.91 95.1328 1087.72 94.7161 1086.73 93.8828C1085.77 93.0234 1085.29 92.0469 1085.29 90.9531C1085.29 89.651 1086.12 88.1406 1087.79 86.4219L1091.07 83.0625C1091.07 84.2344 1091.77 85.5234 1093.18 86.9297C1094.59 88.3359 1095.29 89.5469 1095.29 90.5625ZM1092.71 90.875C1092.71 90.3021 1092.42 89.7031 1091.85 89.0781C1091.28 88.4271 1090.71 87.8021 1090.13 87.2031C1089.64 87.75 1089.13 88.3099 1088.61 88.8828C1088.11 89.4297 1087.87 89.9896 1087.87 90.5625C1087.87 92.0208 1088.65 92.75 1090.21 92.75C1090.78 92.75 1091.34 92.5677 1091.89 92.2031C1092.44 91.8125 1092.71 91.3698 1092.71 90.875ZM1105.45 85.875C1104.61 86.1354 1101.85 87.3594 1097.16 89.5469C1093.13 91.4479 1090.51 92.3984 1089.31 92.3984H1085.41C1088.17 91.1224 1090.93 89.8594 1093.69 88.6094C1097.65 86.7865 1100.25 85.875 1101.5 85.875H1105.45ZM1100.37 103.688H1108.57V111.891H1100.37V103.688ZM1114.98 117.75H1123.96V141.578H1128.45C1128.38 146.526 1128.3 149 1128.22 149H1123.92C1123.27 153.271 1121.86 156.357 1119.7 158.258C1117.52 160.159 1114.29 160.979 1110.02 160.719H1099.31C1095.09 160.693 1091.85 159.391 1089.59 156.812C1087.32 154.26 1086.23 149.729 1086.3 143.219V129.469H1095.64V146.93C1095.74 150.784 1097.66 152.737 1101.38 152.789H1109.04C1113.28 152.867 1115.26 150.25 1114.98 144.938V117.75ZM1129.9 131.227C1130.18 122.477 1135.09 117.984 1144.62 117.75H1153.26V141.031C1153.54 151.734 1148.3 156.865 1137.52 156.422H1129.9V149H1127.01V141.578H1129.9V131.227ZM1142.05 125.719C1140.25 125.849 1139.26 126.878 1139.08 128.805V148.492H1141.07C1143.13 148.388 1144.09 147.294 1143.96 145.211V125.719H1142.05ZM1161.15 107.32C1163.18 105.68 1164.65 103.74 1165.56 101.5C1166.47 99.2604 1166.93 96.4479 1166.93 93.0625V90.6797H1174.51C1174.48 95.1849 1173.65 99.013 1172.01 102.164C1170.37 105.315 1167.76 108.076 1164.2 110.445L1161.15 107.32ZM1176.7 107.32C1178.67 105.68 1180.11 103.753 1180.99 101.539C1181.9 99.2995 1182.36 96.5 1182.36 93.1406V90.6797H1189.94C1189.91 95.237 1189.08 99.0781 1187.44 102.203C1185.82 105.328 1183.26 108.076 1179.74 110.445L1176.7 107.32Z" fill="#18A558"></path><path d="M360.523 284.516C359.69 284.776 356.93 286 352.242 288.188C348.206 290.089 345.589 291.039 344.391 291.039H340.484C343.245 289.763 346.005 288.5 348.766 287.25C352.724 285.427 355.328 284.516 356.578 284.516H360.523ZM344.664 219.32C346.695 217.68 348.167 215.74 349.078 213.5C349.99 211.26 350.445 208.448 350.445 205.062V202.68H358.023C357.997 207.185 357.164 211.013 355.523 214.164C353.883 217.315 351.279 220.076 347.711 222.445L344.664 219.32ZM360.211 219.32C362.19 217.68 363.622 215.753 364.508 213.539C365.419 211.299 365.875 208.5 365.875 205.141V202.68H373.453C373.427 207.237 372.594 211.078 370.953 214.203C369.339 217.328 366.773 220.076 363.258 222.445L360.211 219.32ZM401.461 197.875C400.628 198.135 397.867 199.359 393.18 201.547C389.143 203.448 386.526 204.398 385.328 204.398H381.422C384.182 203.122 386.943 201.859 389.703 200.609C393.661 198.786 396.266 197.875 397.516 197.875H401.461ZM399.859 202.562C398.609 202.849 396.227 203.904 392.711 205.727C389.43 207.419 387.503 208.266 386.93 208.266C385.836 208.266 384.612 207.263 383.258 205.258C382.763 204.503 382.034 203.565 381.07 202.445H383.375C384.13 202.445 384.924 202.862 385.758 203.695C386.591 204.529 387.177 204.945 387.516 204.945C388.766 204.945 389.391 204.438 389.391 203.422C389.391 202.693 389.091 201.872 388.492 200.961C387.945 200.18 387.411 199.633 386.891 199.32H389.273C390.029 199.32 390.667 199.724 391.188 200.531C392.125 201.938 392.75 202.641 393.062 202.641C394.234 202.641 394.82 202.016 394.82 200.766C394.82 199.411 394.143 198.37 392.789 197.641L394.781 197.484C396.083 197.38 397.034 198.044 397.633 199.477C398.258 200.909 399 201.938 399.859 202.562ZM391.188 215.688H399.391V223.891H391.188V215.688ZM402.906 215.688H411.109V223.891H402.906V215.688ZM391.227 238.031C393.544 235.505 396.487 233.461 400.055 231.898C403.648 230.336 408.023 229.568 413.18 229.594V253.578H417.789V261H404.039V239.789C398.18 242.758 393.974 248.148 391.422 255.961L390.367 261H381.773C382.034 252.302 385.185 244.646 391.227 238.031ZM438.414 197.875C437.581 198.135 434.82 199.359 430.133 201.547C426.096 203.448 423.479 204.398 422.281 204.398H418.375C421.135 203.122 423.896 201.859 426.656 200.609C430.615 198.786 433.219 197.875 434.469 197.875H438.414ZM423.453 229.75H432.594V253.578V261H416.5V253.578H423.453V229.75ZM423.57 215.688H431.773V223.891H423.57V215.688ZM461.734 272.875H469.938V264.672H461.734V272.875ZM441.695 230.102H456.07C463.727 230.466 468.245 234.112 469.625 241.039V253.578H472.906V261H449.117C447.867 261.13 447.268 261.833 447.32 263.109C447.372 264.411 448.818 264.958 451.656 264.75H459.508V272.719H450.562C444.26 272.875 440.523 271.26 439.352 267.875C438.206 264.49 438.31 261.234 439.664 258.109C441.018 254.958 445.211 253.448 452.242 253.578H460.094V243.109C460.276 240.271 458.74 238.422 455.484 237.562H441.695V230.102ZM483.883 202.562C483.883 203.839 483.388 204.919 482.398 205.805C481.409 206.69 480.237 207.133 478.883 207.133C477.503 207.133 476.318 206.716 475.328 205.883C474.365 205.023 473.883 204.047 473.883 202.953C473.883 201.651 474.716 200.141 476.383 198.422L479.664 195.062C479.664 196.234 480.367 197.523 481.773 198.93C483.18 200.336 483.883 201.547 483.883 202.562ZM481.305 202.875C481.305 202.302 481.018 201.703 480.445 201.078C479.872 200.427 479.299 199.802 478.727 199.203C478.232 199.75 477.724 200.31 477.203 200.883C476.708 201.43 476.461 201.99 476.461 202.562C476.461 204.021 477.242 204.75 478.805 204.75C479.378 204.75 479.938 204.568 480.484 204.203C481.031 203.812 481.305 203.37 481.305 202.875ZM477.125 214.125H486.266V253.578V261H472.125V253.578H477.125V214.125ZM500.172 261H491.031V214.125H500.172V261ZM524.352 197.875C523.518 198.135 520.758 199.359 516.07 201.547C512.034 203.448 509.417 204.398 508.219 204.398H504.312C507.073 203.122 509.833 201.859 512.594 200.609C516.552 198.786 519.156 197.875 520.406 197.875H524.352ZM537.906 239.906V264.906H548.844C553.375 264.854 555.497 263.552 555.211 261H549.625V253.578H568.414V261H564.195C563.154 268.37 559.104 272.276 552.047 272.719H538.453C532.672 272.797 529.625 269.984 529.312 264.281V239.906H537.906ZM571.969 214.125H581.109V253.578V261H566.969V253.578H571.969V214.125ZM605.445 284.516C604.612 284.776 601.852 286 597.164 288.188C593.128 290.089 590.51 291.039 589.312 291.039H585.406C588.167 289.763 590.927 288.5 593.688 287.25C597.646 285.427 600.25 284.516 601.5 284.516H605.445ZM587.047 266.039V269.594H585.914V272.562H593.961V269.594H589.352V267.328C589.299 266.625 589.638 266.286 590.367 266.312H593.961V263.227H588.766C587.724 264.19 587.151 265.128 587.047 266.039ZM595.016 261H585.875V214.125H595.016V261ZM643.766 196.82C642.932 197.081 640.172 198.305 635.484 200.492C631.448 202.393 628.831 203.344 627.633 203.344H623.727C626.487 202.068 629.247 200.805 632.008 199.555C635.966 197.732 638.57 196.82 639.82 196.82H643.766ZM645.25 201.156C644.417 201.417 641.656 202.641 636.969 204.828C632.932 206.729 630.315 207.68 629.117 207.68H625.211C627.971 206.404 630.732 205.141 633.492 203.891C637.451 202.068 640.055 201.156 641.305 201.156H645.25ZM634.234 253.578H639.234V261H625.094V253.578V214.125H634.234V253.578ZM649.898 202.562C649.898 203.839 649.404 204.919 648.414 205.805C647.424 206.69 646.253 207.133 644.898 207.133C643.518 207.133 642.333 206.716 641.344 205.883C640.38 205.023 639.898 204.047 639.898 202.953C639.898 201.651 640.732 200.141 642.398 198.422L645.68 195.062C645.68 196.234 646.383 197.523 647.789 198.93C649.195 200.336 649.898 201.547 649.898 202.562ZM647.32 202.875C647.32 202.302 647.034 201.703 646.461 201.078C645.888 200.427 645.315 199.802 644.742 199.203C644.247 199.75 643.74 200.31 643.219 200.883C642.724 201.43 642.477 201.99 642.477 202.562C642.477 204.021 643.258 204.75 644.82 204.75C645.393 204.75 645.953 204.568 646.5 204.203C647.047 203.812 647.32 203.37 647.32 202.875ZM647.164 215.688H655.367V223.891H647.164V215.688ZM658.102 215.688H666.305V223.891H658.102V215.688ZM659.781 238.109C654.495 237.719 651.695 239.333 651.383 242.953C652.555 247.667 655.706 251.208 660.836 253.578V238.109H659.781ZM642.906 238.227C645.172 232.523 650.185 229.698 657.945 229.75H669.859V253.578H673.297V261H638.219V253.578H647.203C642.516 249.307 641.083 244.19 642.906 238.227ZM693.961 284.516C693.128 284.776 690.367 286 685.68 288.188C681.643 290.089 679.026 291.039 677.828 291.039H673.922C676.682 289.763 679.443 288.5 682.203 287.25C686.161 285.427 688.766 284.516 690.016 284.516H693.961ZM682.906 229.75H692.047V253.578V261H672.047V253.578H682.906V229.75ZM672.398 265.102H680.602V273.305H672.398V265.102ZM684.117 265.102H692.32V273.305H684.117V265.102ZM717.477 197.875C716.643 198.135 713.883 199.359 709.195 201.547C705.159 203.448 702.542 204.398 701.344 204.398H697.438C700.198 203.122 702.958 201.859 705.719 200.609C709.677 198.786 712.281 197.875 713.531 197.875H717.477ZM711.148 229.75V253.578H715.016V261H710.68C709.195 269.177 704.286 273.083 695.953 272.719V264.75C700.25 264.724 702.385 261.742 702.359 255.805V229.75H711.148ZM718.922 214.125H727.672V229.75H747.984C750.406 229.802 752.307 230.128 753.688 230.727C755.094 231.299 756.5 232.406 757.906 234.047C759.312 235.688 760.237 238.031 760.68 241.078V253.578V261H713.531V253.578H718.922V214.125ZM727.672 237.562V253.578H750.914V242.133C750.68 239.477 749.104 237.953 746.188 237.562H727.672ZM781.578 200.531C781.578 201.703 780.615 202.719 778.688 203.578L780.953 205.609H779.234C778.375 205.609 777.464 205.271 776.5 204.594C776.37 204.646 775.081 205.284 772.633 206.508C770.914 207.393 769.352 207.836 767.945 207.836H764.352C767.164 206.768 770.51 205.167 774.391 203.031L773.375 202.094C772.438 201.234 771.969 200.375 771.969 199.516C771.969 198.552 772.464 197.68 773.453 196.898L778.141 193.188C778.141 193.891 778.714 195.115 779.859 196.859C781.005 198.604 781.578 199.828 781.578 200.531ZM778.883 200.141C778.883 198.682 778.154 197.953 776.695 197.953C775.367 197.953 774.703 198.487 774.703 199.555C774.703 199.945 775.406 200.714 776.812 201.859C778.193 201.052 778.883 200.479 778.883 200.141ZM809.977 197.875C809.143 198.135 806.383 199.359 801.695 201.547C797.659 203.448 795.042 204.398 793.844 204.398H789.938C792.698 203.122 795.458 201.859 798.219 200.609C802.177 198.786 804.781 197.875 806.031 197.875H809.977ZM799.859 238.031C802.177 235.505 805.12 233.461 808.688 231.898C812.281 230.336 816.656 229.568 821.812 229.594V253.578H826.422V261H812.672V239.789C806.812 242.758 802.607 248.148 800.055 255.961L799 261H790.406C790.667 252.302 793.818 244.646 799.859 238.031ZM830.172 214.125H839.312V253.578V261H825.172V253.578H830.172V214.125ZM860.719 200.531C860.719 201.703 859.755 202.719 857.828 203.578L860.094 205.609H858.375C857.516 205.609 856.604 205.271 855.641 204.594C855.51 204.646 854.221 205.284 851.773 206.508C850.055 207.393 848.492 207.836 847.086 207.836H843.492C846.305 206.768 849.651 205.167 853.531 203.031L852.516 202.094C851.578 201.234 851.109 200.375 851.109 199.516C851.109 198.552 851.604 197.68 852.594 196.898L857.281 193.188C857.281 193.891 857.854 195.115 859 196.859C860.146 198.604 860.719 199.828 860.719 200.531ZM858.023 200.141C858.023 198.682 857.294 197.953 855.836 197.953C854.508 197.953 853.844 198.487 853.844 199.555C853.844 199.945 854.547 200.714 855.953 201.859C857.333 201.052 858.023 200.479 858.023 200.141ZM925.719 214.125H934.859V261H891.812V239.789C885.953 242.758 881.747 248.148 879.195 255.961L878.141 261H869.547C869.807 252.302 872.958 244.646 879 238.031C881.318 235.505 884.26 233.461 887.828 231.898C891.422 230.336 895.797 229.568 900.953 229.594V253.578H909.703V214.125H918.844V253.578H925.719V214.125ZM949 261H939.859V214.125H949V261ZM973.18 197.875C972.346 198.135 969.586 199.359 964.898 201.547C960.862 203.448 958.245 204.398 957.047 204.398H953.141C955.901 203.122 958.661 201.859 961.422 200.609C965.38 198.786 967.984 197.875 969.234 197.875H973.18ZM998.648 197.875C997.815 198.135 995.055 199.359 990.367 201.547C986.331 203.448 983.714 204.398 982.516 204.398H978.609C981.37 203.122 984.13 201.859 986.891 200.609C990.849 198.786 993.453 197.875 994.703 197.875H998.648ZM997.047 202.562C995.797 202.849 993.414 203.904 989.898 205.727C986.617 207.419 984.69 208.266 984.117 208.266C983.023 208.266 981.799 207.263 980.445 205.258C979.951 204.503 979.221 203.565 978.258 202.445H980.562C981.318 202.445 982.112 202.862 982.945 203.695C983.779 204.529 984.365 204.945 984.703 204.945C985.953 204.945 986.578 204.438 986.578 203.422C986.578 202.693 986.279 201.872 985.68 200.961C985.133 200.18 984.599 199.633 984.078 199.32H986.461C987.216 199.32 987.854 199.724 988.375 200.531C989.312 201.938 989.938 202.641 990.25 202.641C991.422 202.641 992.008 202.016 992.008 200.766C992.008 199.411 991.331 198.37 989.977 197.641L991.969 197.484C993.271 197.38 994.221 198.044 994.82 199.477C995.445 200.909 996.188 201.938 997.047 202.562ZM1011.11 214.125H1020.09V253.578H1024.82L1024.78 261H1020.09C1019.44 265.271 1018.02 268.357 1015.84 270.258C1013.65 272.159 1010.42 272.979 1006.15 272.719H992.711C988.492 272.693 985.25 271.391 982.984 268.812C980.719 266.26 979.625 261.729 979.703 255.219V241.469H989.039V258.93C989.143 262.784 991.057 264.737 994.781 264.789H1005.17C1009.42 264.867 1011.4 262.25 1011.11 256.938V214.125ZM1045.52 197.875C1044.69 198.135 1041.93 199.359 1037.24 201.547C1033.21 203.448 1030.59 204.398 1029.39 204.398H1025.48C1028.24 203.122 1031.01 201.859 1033.77 200.609C1037.72 198.786 1040.33 197.875 1041.58 197.875H1045.52ZM1042.12 253.578C1042.52 248.604 1041.11 246.156 1037.91 246.234C1034.73 246.286 1033.41 248.734 1033.96 253.578H1042.12ZM1039.7 237.953C1047.05 238.656 1050.58 243.865 1050.29 253.578H1054.47V242.25C1054.44 239.255 1053.02 237.823 1050.21 237.953H1039.7ZM1036.46 229.75H1050.45C1058.47 229.802 1062.75 232.914 1063.3 239.086V253.578H1065.72L1065.84 261H1023.57V253.578H1026.5C1026.03 243.63 1029.77 238.422 1037.71 237.953H1036.46V229.75ZM1095.25 235.609H1104.78V253.578H1114.39V229.75H1123.92V253.578V261H1064.86V253.578H1076.11V241.469H1085.64V253.578H1095.25V235.609Z" fill="#18A558"></path><path d="M43.9628 367.6C43.6628 366.48 43.5128 365.48 43.5128 364.6C43.5128 363.42 43.8028 362.51 44.3828 361.87C44.9628 361.21 45.8028 360.88 46.9028 360.88V362.29C46.3828 362.29 46.0028 362.44 45.7628 362.74C45.5428 363.02 45.4328 363.46 45.4328 364.06V364.69H47.0528V367.6H43.9628ZM48.4928 367.6C48.2128 366.56 48.0728 365.56 48.0728 364.6C48.0728 363.42 48.3528 362.51 48.9128 361.87C49.4928 361.21 50.3328 360.88 51.4328 360.88V362.29C50.4528 362.29 49.9628 362.88 49.9628 364.06V364.69H51.5828V367.6H48.4928ZM65.8825 374.08C67.1625 374.34 68.1925 374.95 68.9725 375.91C69.7725 376.87 70.1725 377.99 70.1725 379.27C70.1725 381.03 69.5825 382.43 68.4025 383.47C67.2225 384.49 65.5125 385 63.2725 385H54.8425V363.82H63.1225C65.2425 363.82 66.8625 364.3 67.9825 365.26C69.1225 366.2 69.6925 367.5 69.6925 369.16C69.6925 370.5 69.3425 371.59 68.6425 372.43C67.9425 373.25 67.0225 373.8 65.8825 374.08ZM58.2625 372.94H62.4925C63.6925 372.94 64.6025 372.66 65.2225 372.1C65.8625 371.54 66.1825 370.76 66.1825 369.76C66.1825 368.78 65.8625 368.01 65.2225 367.45C64.6025 366.89 63.6525 366.61 62.3725 366.61H58.2625V372.94ZM62.5825 382.18C63.8825 382.18 64.8825 381.89 65.5825 381.31C66.3025 380.71 66.6625 379.88 66.6625 378.82C66.6625 377.76 66.3025 376.93 65.5825 376.33C64.8625 375.73 63.8525 375.43 62.5525 375.43H58.2625V382.18H62.5825ZM80.0174 368.26C81.5174 368.26 82.7974 368.63 83.8574 369.37C84.9174 370.11 85.6674 371.09 86.1074 372.31V368.47H89.5274V385H86.1074V381.16C85.6674 382.38 84.9174 383.36 83.8574 384.1C82.7974 384.84 81.5174 385.21 80.0174 385.21C78.5774 385.21 77.2874 384.87 76.1474 384.19C75.0274 383.51 74.1474 382.53 73.5074 381.25C72.8674 379.97 72.5474 378.46 72.5474 376.72C72.5474 375 72.8674 373.5 73.5074 372.22C74.1474 370.94 75.0274 369.96 76.1474 369.28C77.2874 368.6 78.5774 368.26 80.0174 368.26ZM81.0674 371.26C79.5474 371.26 78.3274 371.75 77.4074 372.73C76.5074 373.69 76.0574 375.02 76.0574 376.72C76.0574 378.42 76.5074 379.76 77.4074 380.74C78.3274 381.7 79.5474 382.18 81.0674 382.18C82.0274 382.18 82.8874 381.96 83.6474 381.52C84.4074 381.06 85.0074 380.42 85.4474 379.6C85.8874 378.78 86.1074 377.82 86.1074 376.72C86.1074 375.64 85.8874 374.69 85.4474 373.87C85.0074 373.03 84.4074 372.39 83.6474 371.95C82.8874 371.49 82.0274 371.26 81.0674 371.26ZM97.0515 371.71C97.6115 370.63 98.4115 369.78 99.4515 369.16C100.492 368.52 101.692 368.2 103.052 368.2V371.92H102.032C100.532 371.92 99.3215 372.29 98.4015 373.03C97.5015 373.75 97.0515 374.95 97.0515 376.63V385H93.6315V368.47H97.0515V371.71ZM112.244 368.26C113.744 368.26 115.024 368.63 116.084 369.37C117.144 370.11 117.894 371.09 118.334 372.31V368.47H121.754V385H118.334V381.16C117.894 382.38 117.144 383.36 116.084 384.1C115.024 384.84 113.744 385.21 112.244 385.21C110.804 385.21 109.514 384.87 108.374 384.19C107.254 383.51 106.374 382.53 105.734 381.25C105.094 379.97 104.774 378.46 104.774 376.72C104.774 375 105.094 373.5 105.734 372.22C106.374 370.94 107.254 369.96 108.374 369.28C109.514 368.6 110.804 368.26 112.244 368.26ZM113.294 371.26C111.774 371.26 110.554 371.75 109.634 372.73C108.734 373.69 108.284 375.02 108.284 376.72C108.284 378.42 108.734 379.76 109.634 380.74C110.554 381.7 111.774 382.18 113.294 382.18C114.254 382.18 115.114 381.96 115.874 381.52C116.634 381.06 117.234 380.42 117.674 379.6C118.114 378.78 118.334 377.82 118.334 376.72C118.334 375.64 118.114 374.69 117.674 373.87C117.234 373.03 116.634 372.39 115.874 371.95C115.114 371.49 114.254 371.26 113.294 371.26ZM135.098 368.2C137.018 368.2 138.558 368.82 139.718 370.06C140.878 371.3 141.458 373.07 141.458 375.37V385H138.038V375.73C138.038 374.25 137.658 373.11 136.898 372.31C136.138 371.49 135.098 371.08 133.778 371.08C132.418 371.08 131.328 371.52 130.508 372.4C129.688 373.26 129.278 374.53 129.278 376.21V385H125.858V368.47H129.278V372.1C129.718 370.86 130.458 369.9 131.498 369.22C132.538 368.54 133.738 368.2 135.098 368.2ZM152.088 368.26C153.588 368.26 154.868 368.63 155.928 369.37C156.988 370.11 157.738 371.09 158.178 372.31V368.47H161.598V385.18C161.598 386.72 161.278 388.08 160.638 389.26C160.018 390.46 159.118 391.4 157.938 392.08C156.758 392.76 155.358 393.1 153.738 393.1C151.418 393.1 149.538 392.55 148.098 391.45C146.678 390.35 145.788 388.86 145.428 386.98H148.818C149.098 387.96 149.638 388.72 150.438 389.26C151.238 389.82 152.258 390.1 153.498 390.1C154.858 390.1 155.978 389.68 156.858 388.84C157.738 388 158.178 386.78 158.178 385.18V381.16C157.738 382.38 156.988 383.36 155.928 384.1C154.868 384.84 153.588 385.21 152.088 385.21C150.648 385.21 149.358 384.87 148.218 384.19C147.098 383.51 146.218 382.53 145.578 381.25C144.938 379.97 144.618 378.46 144.618 376.72C144.618 375 144.938 373.5 145.578 372.22C146.218 370.94 147.098 369.96 148.218 369.28C149.358 368.6 150.648 368.26 152.088 368.26ZM153.138 371.26C151.618 371.26 150.398 371.75 149.478 372.73C148.578 373.69 148.128 375.02 148.128 376.72C148.128 378.42 148.578 379.76 149.478 380.74C150.398 381.7 151.618 382.18 153.138 382.18C154.098 382.18 154.958 381.96 155.718 381.52C156.478 381.06 157.078 380.42 157.518 379.6C157.958 378.78 158.178 377.82 158.178 376.72C158.178 375.64 157.958 374.69 157.518 373.87C157.078 373.03 156.478 372.39 155.718 371.95C154.958 371.49 154.098 371.26 153.138 371.26ZM178.163 368.26C180.103 368.26 181.653 368.76 182.813 369.76C183.993 370.74 184.713 372.06 184.973 373.72H181.733C181.593 372.82 181.203 372.1 180.563 371.56C179.943 371 179.113 370.72 178.073 370.72C177.213 370.72 176.543 370.93 176.063 371.35C175.603 371.75 175.373 372.3 175.373 373C175.373 373.52 175.543 373.94 175.883 374.26C176.223 374.58 176.643 374.83 177.143 375.01C177.663 375.19 178.393 375.39 179.333 375.61C180.573 375.89 181.573 376.18 182.333 376.48C183.113 376.78 183.773 377.26 184.313 377.92C184.873 378.56 185.153 379.44 185.153 380.56C185.153 381.94 184.623 383.06 183.563 383.92C182.523 384.78 181.113 385.21 179.333 385.21C177.273 385.21 175.603 384.73 174.323 383.77C173.063 382.81 172.303 381.47 172.043 379.75H175.373C175.473 380.65 175.873 381.38 176.573 381.94C177.273 382.5 178.193 382.78 179.333 382.78C180.153 382.78 180.793 382.57 181.253 382.15C181.733 381.71 181.973 381.16 181.973 380.5C181.973 379.92 181.793 379.46 181.433 379.12C181.073 378.78 180.623 378.52 180.083 378.34C179.543 378.14 178.803 377.94 177.863 377.74C176.663 377.46 175.683 377.18 174.923 376.9C174.183 376.62 173.543 376.17 173.003 375.55C172.483 374.91 172.223 374.05 172.223 372.97C172.223 371.57 172.743 370.44 173.783 369.58C174.843 368.7 176.303 368.26 178.163 368.26ZM188.103 363.67C188.103 363.09 188.303 362.61 188.703 362.23C189.103 361.85 189.633 361.66 190.293 361.66C190.953 361.66 191.483 361.85 191.883 362.23C192.303 362.61 192.513 363.09 192.513 363.67C192.513 364.25 192.303 364.72 191.883 365.08C191.483 365.44 190.953 365.62 190.293 365.62C189.633 365.62 189.103 365.44 188.703 365.08C188.303 364.72 188.103 364.25 188.103 363.67ZM192.003 368.47V385H188.583V368.47H192.003ZM202.771 368.26C204.271 368.26 205.551 368.63 206.611 369.37C207.671 370.11 208.421 371.09 208.861 372.31V368.47H212.281V385H208.861V381.16C208.421 382.38 207.671 383.36 206.611 384.1C205.551 384.84 204.271 385.21 202.771 385.21C201.331 385.21 200.041 384.87 198.901 384.19C197.781 383.51 196.901 382.53 196.261 381.25C195.621 379.97 195.301 378.46 195.301 376.72C195.301 375 195.621 373.5 196.261 372.22C196.901 370.94 197.781 369.96 198.901 369.28C200.041 368.6 201.331 368.26 202.771 368.26ZM203.821 371.26C202.301 371.26 201.081 371.75 200.161 372.73C199.261 373.69 198.811 375.02 198.811 376.72C198.811 378.42 199.261 379.76 200.161 380.74C201.081 381.7 202.301 382.18 203.821 382.18C204.781 382.18 205.641 381.96 206.401 381.52C207.161 381.06 207.761 380.42 208.201 379.6C208.641 378.78 208.861 377.82 208.861 376.72C208.861 375.64 208.641 374.69 208.201 373.87C207.761 373.03 207.161 372.39 206.401 371.95C205.641 371.49 204.781 371.26 203.821 371.26ZM225.865 368.26C227.305 368.26 228.585 368.6 229.705 369.28C230.845 369.96 231.735 370.94 232.375 372.22C233.015 373.5 233.335 375 233.335 376.72C233.335 378.46 233.015 379.97 232.375 381.25C231.735 382.53 230.845 383.51 229.705 384.19C228.585 384.87 227.305 385.21 225.865 385.21C224.365 385.21 223.085 384.84 222.025 384.1C220.965 383.36 220.225 382.38 219.805 381.16V392.86H216.385V368.47H219.805V372.31C220.225 371.09 220.965 370.11 222.025 369.37C223.085 368.63 224.365 368.26 225.865 368.26ZM224.815 371.26C223.855 371.26 222.995 371.49 222.235 371.95C221.475 372.39 220.875 373.03 220.435 373.87C219.995 374.69 219.775 375.64 219.775 376.72C219.775 377.82 219.995 378.78 220.435 379.6C220.875 380.42 221.475 381.06 222.235 381.52C222.995 381.96 223.855 382.18 224.815 382.18C226.335 382.18 227.555 381.7 228.475 380.74C229.395 379.76 229.855 378.42 229.855 376.72C229.855 375.04 229.395 373.71 228.475 372.73C227.555 371.75 226.335 371.26 224.815 371.26ZM243.26 368.26C244.76 368.26 246.04 368.63 247.1 369.37C248.16 370.11 248.91 371.09 249.35 372.31V368.47H252.77V385H249.35V381.16C248.91 382.38 248.16 383.36 247.1 384.1C246.04 384.84 244.76 385.21 243.26 385.21C241.82 385.21 240.53 384.87 239.39 384.19C238.27 383.51 237.39 382.53 236.75 381.25C236.11 379.97 235.79 378.46 235.79 376.72C235.79 375 236.11 373.5 236.75 372.22C237.39 370.94 238.27 369.96 239.39 369.28C240.53 368.6 241.82 368.26 243.26 368.26ZM244.31 371.26C242.79 371.26 241.57 371.75 240.65 372.73C239.75 373.69 239.3 375.02 239.3 376.72C239.3 378.42 239.75 379.76 240.65 380.74C241.57 381.7 242.79 382.18 244.31 382.18C245.27 382.18 246.13 381.96 246.89 381.52C247.65 381.06 248.25 380.42 248.69 379.6C249.13 378.78 249.35 377.82 249.35 376.72C249.35 375.64 249.13 374.69 248.69 373.87C248.25 373.03 247.65 372.39 246.89 371.95C246.13 371.49 245.27 371.26 244.31 371.26ZM265.855 368.47L270.805 380.62L275.395 368.47H279.205L269.215 392.86H265.405L268.975 384.61L262.015 368.47H265.855ZM288.084 368.26C289.584 368.26 290.864 368.63 291.924 369.37C292.984 370.11 293.734 371.09 294.174 372.31V368.47H297.594V385H294.174V381.16C293.734 382.38 292.984 383.36 291.924 384.1C290.864 384.84 289.584 385.21 288.084 385.21C286.644 385.21 285.354 384.87 284.214 384.19C283.094 383.51 282.214 382.53 281.574 381.25C280.934 379.97 280.614 378.46 280.614 376.72C280.614 375 280.934 373.5 281.574 372.22C282.214 370.94 283.094 369.96 284.214 369.28C285.354 368.6 286.644 368.26 288.084 368.26ZM289.134 371.26C287.614 371.26 286.394 371.75 285.474 372.73C284.574 373.69 284.124 375.02 284.124 376.72C284.124 378.42 284.574 379.76 285.474 380.74C286.394 381.7 287.614 382.18 289.134 382.18C290.094 382.18 290.954 381.96 291.714 381.52C292.474 381.06 293.074 380.42 293.514 379.6C293.954 378.78 294.174 377.82 294.174 376.72C294.174 375.64 293.954 374.69 293.514 373.87C293.074 373.03 292.474 372.39 291.714 371.95C290.954 371.49 290.094 371.26 289.134 371.26ZM310.938 368.2C312.858 368.2 314.398 368.82 315.558 370.06C316.718 371.3 317.298 373.07 317.298 375.37V385H313.878V375.73C313.878 374.25 313.498 373.11 312.738 372.31C311.978 371.49 310.938 371.08 309.618 371.08C308.258 371.08 307.168 371.52 306.348 372.4C305.528 373.26 305.118 374.53 305.118 376.21V385H301.698V368.47H305.118V372.1C305.558 370.86 306.298 369.9 307.338 369.22C308.378 368.54 309.578 368.2 310.938 368.2ZM327.928 368.26C329.428 368.26 330.708 368.63 331.768 369.37C332.828 370.11 333.578 371.09 334.018 372.31V368.47H337.438V385.18C337.438 386.72 337.118 388.08 336.478 389.26C335.858 390.46 334.958 391.4 333.778 392.08C332.598 392.76 331.198 393.1 329.578 393.1C327.258 393.1 325.378 392.55 323.938 391.45C322.518 390.35 321.628 388.86 321.268 386.98H324.658C324.938 387.96 325.478 388.72 326.278 389.26C327.078 389.82 328.098 390.1 329.338 390.1C330.698 390.1 331.818 389.68 332.698 388.84C333.578 388 334.018 386.78 334.018 385.18V381.16C333.578 382.38 332.828 383.36 331.768 384.1C330.708 384.84 329.428 385.21 327.928 385.21C326.488 385.21 325.198 384.87 324.058 384.19C322.938 383.51 322.058 382.53 321.418 381.25C320.778 379.97 320.458 378.46 320.458 376.72C320.458 375 320.778 373.5 321.418 372.22C322.058 370.94 322.938 369.96 324.058 369.28C325.198 368.6 326.488 368.26 327.928 368.26ZM328.978 371.26C327.458 371.26 326.238 371.75 325.318 372.73C324.418 373.69 323.968 375.02 323.968 376.72C323.968 378.42 324.418 379.76 325.318 380.74C326.238 381.7 327.458 382.18 328.978 382.18C329.938 382.18 330.798 381.96 331.558 381.52C332.318 381.06 332.918 380.42 333.358 379.6C333.798 378.78 334.018 377.82 334.018 376.72C334.018 375.64 333.798 374.69 333.358 373.87C332.918 373.03 332.318 372.39 331.558 371.95C330.798 371.49 329.938 371.26 328.978 371.26ZM369.243 368.2C371.203 368.2 372.763 368.82 373.923 370.06C375.103 371.3 375.693 373.07 375.693 375.37V385H372.273V375.73C372.273 374.29 371.913 373.18 371.193 372.4C370.473 371.6 369.483 371.2 368.223 371.2C366.883 371.2 365.813 371.63 365.013 372.49C364.233 373.33 363.843 374.57 363.843 376.21V385H360.423V375.73C360.423 374.29 360.063 373.18 359.343 372.4C358.623 371.6 357.633 371.2 356.373 371.2C355.033 371.2 353.963 371.63 353.163 372.49C352.383 373.33 351.993 374.57 351.993 376.21V385H348.573V368.47H351.993V371.92C352.413 370.72 353.113 369.8 354.093 369.16C355.073 368.52 356.223 368.2 357.543 368.2C358.923 368.2 360.113 368.54 361.113 369.22C362.133 369.9 362.873 370.88 363.333 372.16C363.813 370.92 364.583 369.95 365.643 369.25C366.703 368.55 367.903 368.2 369.243 368.2ZM395.046 375.94C395.046 376.5 395.006 376.99 394.926 377.41H382.206C382.266 379.11 382.736 380.37 383.616 381.19C384.496 382.01 385.586 382.42 386.886 382.42C388.026 382.42 388.986 382.13 389.766 381.55C390.566 380.97 391.056 380.2 391.236 379.24H394.896C394.676 380.4 394.216 381.43 393.516 382.33C392.816 383.23 391.906 383.94 390.786 384.46C389.666 384.96 388.416 385.21 387.036 385.21C385.436 385.21 384.016 384.87 382.776 384.19C381.556 383.51 380.596 382.53 379.896 381.25C379.196 379.97 378.846 378.46 378.846 376.72C378.846 375 379.196 373.5 379.896 372.22C380.596 370.94 381.556 369.96 382.776 369.28C384.016 368.6 385.436 368.26 387.036 368.26C388.656 368.26 390.066 368.6 391.266 369.28C392.486 369.94 393.416 370.86 394.056 372.04C394.716 373.2 395.046 374.5 395.046 375.94ZM391.596 375.85C391.636 374.77 391.446 373.87 391.026 373.15C390.626 372.41 390.066 371.87 389.346 371.53C388.646 371.17 387.876 370.99 387.036 370.99C385.696 370.99 384.576 371.4 383.676 372.22C382.776 373.04 382.286 374.25 382.206 375.85H391.596ZM407.588 368.2C409.508 368.2 411.048 368.82 412.208 370.06C413.368 371.3 413.948 373.07 413.948 375.37V385H410.528V375.73C410.528 374.25 410.148 373.11 409.388 372.31C408.628 371.49 407.588 371.08 406.268 371.08C404.908 371.08 403.818 371.52 402.998 372.4C402.178 373.26 401.768 374.53 401.768 376.21V385H398.348V368.47H401.768V372.1C402.208 370.86 402.948 369.9 403.988 369.22C405.028 368.54 406.228 368.2 407.588 368.2ZM433.308 375.94C433.308 376.5 433.268 376.99 433.188 377.41H420.468C420.528 379.11 420.998 380.37 421.878 381.19C422.758 382.01 423.848 382.42 425.148 382.42C426.288 382.42 427.248 382.13 428.028 381.55C428.828 380.97 429.318 380.2 429.498 379.24H433.158C432.938 380.4 432.478 381.43 431.778 382.33C431.078 383.23 430.168 383.94 429.048 384.46C427.928 384.96 426.678 385.21 425.298 385.21C423.698 385.21 422.278 384.87 421.038 384.19C419.818 383.51 418.858 382.53 418.158 381.25C417.458 379.97 417.108 378.46 417.108 376.72C417.108 375 417.458 373.5 418.158 372.22C418.858 370.94 419.818 369.96 421.038 369.28C422.278 368.6 423.698 368.26 425.298 368.26C426.918 368.26 428.328 368.6 429.528 369.28C430.748 369.94 431.678 370.86 432.318 372.04C432.978 373.2 433.308 374.5 433.308 375.94ZM429.858 375.85C429.898 374.77 429.708 373.87 429.288 373.15C428.888 372.41 428.328 371.87 427.608 371.53C426.908 371.17 426.138 370.99 425.298 370.99C423.958 370.99 422.838 371.4 421.938 372.22C421.038 373.04 420.548 374.25 420.468 375.85H429.858ZM457.28 368.2C459.24 368.2 460.8 368.82 461.96 370.06C463.14 371.3 463.73 373.07 463.73 375.37V385H460.31V375.73C460.31 374.29 459.95 373.18 459.23 372.4C458.51 371.6 457.52 371.2 456.26 371.2C454.92 371.2 453.85 371.63 453.05 372.49C452.27 373.33 451.88 374.57 451.88 376.21V385H448.46V375.73C448.46 374.29 448.1 373.18 447.38 372.4C446.66 371.6 445.67 371.2 444.41 371.2C443.07 371.2 442 371.63 441.2 372.49C440.42 373.33 440.03 374.57 440.03 376.21V385H436.61V368.47H440.03V371.92C440.45 370.72 441.15 369.8 442.13 369.16C443.11 368.52 444.26 368.2 445.58 368.2C446.96 368.2 448.15 368.54 449.15 369.22C450.17 369.9 450.91 370.88 451.37 372.16C451.85 370.92 452.62 369.95 453.68 369.25C454.74 368.55 455.94 368.2 457.28 368.2ZM477.203 368.26C478.643 368.26 479.923 368.6 481.043 369.28C482.183 369.96 483.073 370.94 483.713 372.22C484.353 373.5 484.673 375 484.673 376.72C484.673 378.46 484.353 379.97 483.713 381.25C483.073 382.53 482.183 383.51 481.043 384.19C479.923 384.87 478.643 385.21 477.203 385.21C475.703 385.21 474.423 384.84 473.363 384.1C472.303 383.36 471.563 382.38 471.143 381.16V392.86H467.723V368.47H471.143V372.31C471.563 371.09 472.303 370.11 473.363 369.37C474.423 368.63 475.703 368.26 477.203 368.26ZM476.153 371.26C475.193 371.26 474.333 371.49 473.573 371.95C472.813 372.39 472.213 373.03 471.773 373.87C471.333 374.69 471.113 375.64 471.113 376.72C471.113 377.82 471.333 378.78 471.773 379.6C472.213 380.42 472.813 381.06 473.573 381.52C474.333 381.96 475.193 382.18 476.153 382.18C477.673 382.18 478.893 381.7 479.813 380.74C480.733 379.76 481.193 378.42 481.193 376.72C481.193 375.04 480.733 373.71 479.813 372.73C478.893 371.75 477.673 371.26 476.153 371.26ZM503.207 368.47V385H499.757V381.4C499.337 382.62 498.607 383.57 497.567 384.25C496.527 384.91 495.317 385.24 493.937 385.24C492.017 385.24 490.477 384.62 489.317 383.38C488.157 382.14 487.577 380.37 487.577 378.07V368.47H490.997V377.71C490.997 379.21 491.377 380.37 492.137 381.19C492.897 381.99 493.937 382.39 495.257 382.39C496.617 382.39 497.707 381.95 498.527 381.07C499.347 380.19 499.757 378.91 499.757 377.23V368.47H503.207ZM516.543 368.2C518.463 368.2 520.003 368.82 521.163 370.06C522.323 371.3 522.903 373.07 522.903 375.37V385H519.483V375.73C519.483 374.25 519.103 373.11 518.343 372.31C517.583 371.49 516.543 371.08 515.223 371.08C513.863 371.08 512.773 371.52 511.953 372.4C511.133 373.26 510.723 374.53 510.723 376.21V385H507.303V362.8H510.723V372.1C511.163 370.86 511.903 369.9 512.943 369.22C513.983 368.54 515.183 368.2 516.543 368.2ZM539.364 368.26C541.304 368.26 542.854 368.76 544.014 369.76C545.194 370.74 545.914 372.06 546.174 373.72H542.934C542.794 372.82 542.404 372.1 541.764 371.56C541.144 371 540.314 370.72 539.274 370.72C538.414 370.72 537.744 370.93 537.264 371.35C536.804 371.75 536.574 372.3 536.574 373C536.574 373.52 536.744 373.94 537.084 374.26C537.424 374.58 537.844 374.83 538.344 375.01C538.864 375.19 539.594 375.39 540.534 375.61C541.774 375.89 542.774 376.18 543.534 376.48C544.314 376.78 544.974 377.26 545.514 377.92C546.074 378.56 546.354 379.44 546.354 380.56C546.354 381.94 545.824 383.06 544.764 383.92C543.724 384.78 542.314 385.21 540.534 385.21C538.474 385.21 536.804 384.73 535.524 383.77C534.264 382.81 533.504 381.47 533.244 379.75H536.574C536.674 380.65 537.074 381.38 537.774 381.94C538.474 382.5 539.394 382.78 540.534 382.78C541.354 382.78 541.994 382.57 542.454 382.15C542.934 381.71 543.174 381.16 543.174 380.5C543.174 379.92 542.994 379.46 542.634 379.12C542.274 378.78 541.824 378.52 541.284 378.34C540.744 378.14 540.004 377.94 539.064 377.74C537.864 377.46 536.884 377.18 536.124 376.9C535.384 376.62 534.744 376.17 534.204 375.55C533.684 374.91 533.424 374.05 533.424 372.97C533.424 371.57 533.944 370.44 534.984 369.58C536.044 368.7 537.504 368.26 539.364 368.26ZM565.024 368.47V385H561.574V381.4C561.154 382.62 560.424 383.57 559.384 384.25C558.344 384.91 557.134 385.24 555.754 385.24C553.834 385.24 552.294 384.62 551.134 383.38C549.974 382.14 549.394 380.37 549.394 378.07V368.47H552.814V377.71C552.814 379.21 553.194 380.37 553.954 381.19C554.714 381.99 555.754 382.39 557.074 382.39C558.434 382.39 559.524 381.95 560.344 381.07C561.164 380.19 561.574 378.91 561.574 377.23V368.47H565.024ZM575.75 368.26C577.25 368.26 578.53 368.63 579.59 369.37C580.65 370.11 581.4 371.09 581.84 372.31V368.47H585.26V385H581.84V381.16C581.4 382.38 580.65 383.36 579.59 384.1C578.53 384.84 577.25 385.21 575.75 385.21C574.31 385.21 573.02 384.87 571.88 384.19C570.76 383.51 569.88 382.53 569.24 381.25C568.6 379.97 568.28 378.46 568.28 376.72C568.28 375 568.6 373.5 569.24 372.22C569.88 370.94 570.76 369.96 571.88 369.28C573.02 368.6 574.31 368.26 575.75 368.26ZM576.8 371.26C575.28 371.26 574.06 371.75 573.14 372.73C572.24 373.69 571.79 375.02 571.79 376.72C571.79 378.42 572.24 379.76 573.14 380.74C574.06 381.7 575.28 382.18 576.8 382.18C577.76 382.18 578.62 381.96 579.38 381.52C580.14 381.06 580.74 380.42 581.18 379.6C581.62 378.78 581.84 377.82 581.84 376.72C581.84 375.64 581.62 374.69 581.18 373.87C580.74 373.03 580.14 372.39 579.38 371.95C578.62 371.49 577.76 371.26 576.8 371.26ZM597.674 382.03V385H595.574C593.814 385 592.474 384.58 591.554 383.74C590.654 382.88 590.204 381.46 590.204 379.48V371.38H587.834V368.47H590.204V364.36H593.654V368.47H597.644V371.38H593.654V379.54C593.654 380.48 593.824 381.13 594.164 381.49C594.524 381.85 595.144 382.03 596.024 382.03H597.674ZM616.118 368.47V385H612.668V381.4C612.248 382.62 611.518 383.57 610.478 384.25C609.438 384.91 608.228 385.24 606.848 385.24C604.928 385.24 603.388 384.62 602.228 383.38C601.068 382.14 600.488 380.37 600.488 378.07V368.47H603.908V377.71C603.908 379.21 604.288 380.37 605.048 381.19C605.808 381.99 606.848 382.39 608.168 382.39C609.528 382.39 610.618 381.95 611.438 381.07C612.258 380.19 612.668 378.91 612.668 377.23V368.47H616.118ZM629.105 365.62C628.445 365.62 627.905 365.44 627.485 365.08C627.085 364.72 626.885 364.25 626.885 363.67C626.885 363.09 627.085 362.61 627.485 362.23C627.905 361.85 628.445 361.66 629.105 361.66C629.765 361.66 630.295 361.85 630.695 362.23C631.095 362.61 631.295 363.09 631.295 363.67C631.295 364.25 631.095 364.72 630.695 365.08C630.295 365.44 629.765 365.62 629.105 365.62ZM624.305 389.86H625.475C626.135 389.86 626.615 389.71 626.915 389.41C627.235 389.13 627.395 388.64 627.395 387.94V368.47H630.845V387.97C630.845 391.23 629.205 392.86 625.925 392.86H624.305V389.86ZM641.551 368.26C643.051 368.26 644.331 368.63 645.391 369.37C646.451 370.11 647.201 371.09 647.641 372.31V368.47H651.061V385H647.641V381.16C647.201 382.38 646.451 383.36 645.391 384.1C644.331 384.84 643.051 385.21 641.551 385.21C640.111 385.21 638.821 384.87 637.681 384.19C636.561 383.51 635.681 382.53 635.041 381.25C634.401 379.97 634.081 378.46 634.081 376.72C634.081 375 634.401 373.5 635.041 372.22C635.681 370.94 636.561 369.96 637.681 369.28C638.821 368.6 640.111 368.26 641.551 368.26ZM642.601 371.26C641.081 371.26 639.861 371.75 638.941 372.73C638.041 373.69 637.591 375.02 637.591 376.72C637.591 378.42 638.041 379.76 638.941 380.74C639.861 381.7 641.081 382.18 642.601 382.18C643.561 382.18 644.421 381.96 645.181 381.52C645.941 381.06 646.541 380.42 646.981 379.6C647.421 378.78 647.641 377.82 647.641 376.72C647.641 375.64 647.421 374.69 646.981 373.87C646.541 373.03 645.941 372.39 645.181 371.95C644.421 371.49 643.561 371.26 642.601 371.26ZM658.585 362.8V385H655.165V362.8H658.585ZM669.353 368.26C670.853 368.26 672.133 368.63 673.193 369.37C674.253 370.11 675.003 371.09 675.443 372.31V368.47H678.863V385H675.443V381.16C675.003 382.38 674.253 383.36 673.193 384.1C672.133 384.84 670.853 385.21 669.353 385.21C667.913 385.21 666.623 384.87 665.483 384.19C664.363 383.51 663.483 382.53 662.843 381.25C662.203 379.97 661.883 378.46 661.883 376.72C661.883 375 662.203 373.5 662.843 372.22C663.483 370.94 664.363 369.96 665.483 369.28C666.623 368.6 667.913 368.26 669.353 368.26ZM670.403 371.26C668.883 371.26 667.663 371.75 666.743 372.73C665.843 373.69 665.393 375.02 665.393 376.72C665.393 378.42 665.843 379.76 666.743 380.74C667.663 381.7 668.883 382.18 670.403 382.18C671.363 382.18 672.223 381.96 672.983 381.52C673.743 381.06 674.343 380.42 674.783 379.6C675.223 378.78 675.443 377.82 675.443 376.72C675.443 375.64 675.223 374.69 674.783 373.87C674.343 373.03 673.743 372.39 672.983 371.95C672.223 371.49 671.363 371.26 670.403 371.26ZM692.207 368.2C694.127 368.2 695.667 368.82 696.827 370.06C697.987 371.3 698.567 373.07 698.567 375.37V385H695.147V375.73C695.147 374.25 694.767 373.11 694.007 372.31C693.247 371.49 692.207 371.08 690.887 371.08C689.527 371.08 688.437 371.52 687.617 372.4C686.797 373.26 686.387 374.53 686.387 376.21V385H682.967V368.47H686.387V372.1C686.827 370.86 687.567 369.9 688.607 369.22C689.647 368.54 690.847 368.2 692.207 368.2ZM724.838 368.47V385H721.388V381.4C720.968 382.62 720.238 383.57 719.198 384.25C718.158 384.91 716.948 385.24 715.568 385.24C713.648 385.24 712.108 384.62 710.948 383.38C709.788 382.14 709.208 380.37 709.208 378.07V368.47H712.628V377.71C712.628 379.21 713.008 380.37 713.768 381.19C714.528 381.99 715.568 382.39 716.888 382.39C718.248 382.39 719.338 381.95 720.158 381.07C720.978 380.19 721.388 378.91 721.388 377.23V368.47H724.838ZM738.174 368.2C740.094 368.2 741.634 368.82 742.794 370.06C743.954 371.3 744.534 373.07 744.534 375.37V385H741.114V375.73C741.114 374.25 740.734 373.11 739.974 372.31C739.214 371.49 738.174 371.08 736.854 371.08C735.494 371.08 734.404 371.52 733.584 372.4C732.764 373.26 732.354 374.53 732.354 376.21V385H728.934V368.47H732.354V372.1C732.794 370.86 733.534 369.9 734.574 369.22C735.614 368.54 736.814 368.2 738.174 368.2ZM756.844 382.03V385H754.744C752.984 385 751.644 384.58 750.724 383.74C749.824 382.88 749.374 381.46 749.374 379.48V371.38H747.004V368.47H749.374V364.36H752.824V368.47H756.814V371.38H752.824V379.54C752.824 380.48 752.994 381.13 753.334 381.49C753.694 381.85 754.314 382.03 755.194 382.03H756.844ZM775.288 368.47V385H771.838V381.4C771.418 382.62 770.688 383.57 769.648 384.25C768.608 384.91 767.398 385.24 766.018 385.24C764.098 385.24 762.558 384.62 761.398 383.38C760.238 382.14 759.658 380.37 759.658 378.07V368.47H763.078V377.71C763.078 379.21 763.458 380.37 764.218 381.19C764.978 381.99 766.018 382.39 767.338 382.39C768.698 382.39 769.788 381.95 770.608 381.07C771.428 380.19 771.838 378.91 771.838 377.23V368.47H775.288ZM788.743 385L782.803 377.65V385H779.383V362.8H782.803V375.52L788.683 368.47H792.793L785.593 376.69L792.973 385H788.743ZM822.905 368.2C824.865 368.2 826.425 368.82 827.585 370.06C828.765 371.3 829.355 373.07 829.355 375.37V385H825.935V375.73C825.935 374.29 825.575 373.18 824.855 372.4C824.135 371.6 823.145 371.2 821.885 371.2C820.545 371.2 819.475 371.63 818.675 372.49C817.895 373.33 817.505 374.57 817.505 376.21V385H814.085V375.73C814.085 374.29 813.725 373.18 813.005 372.4C812.285 371.6 811.295 371.2 810.035 371.2C808.695 371.2 807.625 371.63 806.825 372.49C806.045 373.33 805.655 374.57 805.655 376.21V385H802.235V368.47H805.655V371.92C806.075 370.72 806.775 369.8 807.755 369.16C808.735 368.52 809.885 368.2 811.205 368.2C812.585 368.2 813.775 368.54 814.775 369.22C815.795 369.9 816.535 370.88 816.995 372.16C817.475 370.92 818.245 369.95 819.305 369.25C820.365 368.55 821.565 368.2 822.905 368.2ZM848.708 375.94C848.708 376.5 848.668 376.99 848.588 377.41H835.868C835.928 379.11 836.398 380.37 837.278 381.19C838.158 382.01 839.248 382.42 840.548 382.42C841.688 382.42 842.648 382.13 843.428 381.55C844.228 380.97 844.718 380.2 844.898 379.24H848.558C848.338 380.4 847.878 381.43 847.178 382.33C846.478 383.23 845.568 383.94 844.448 384.46C843.328 384.96 842.078 385.21 840.698 385.21C839.098 385.21 837.678 384.87 836.438 384.19C835.218 383.51 834.258 382.53 833.558 381.25C832.858 379.97 832.508 378.46 832.508 376.72C832.508 375 832.858 373.5 833.558 372.22C834.258 370.94 835.218 369.96 836.438 369.28C837.678 368.6 839.098 368.26 840.698 368.26C842.318 368.26 843.728 368.6 844.928 369.28C846.148 369.94 847.078 370.86 847.718 372.04C848.378 373.2 848.708 374.5 848.708 375.94ZM845.258 375.85C845.298 374.77 845.108 373.87 844.688 373.15C844.288 372.41 843.728 371.87 843.008 371.53C842.308 371.17 841.538 370.99 840.698 370.99C839.358 370.99 838.238 371.4 837.338 372.22C836.438 373.04 835.948 374.25 835.868 375.85H845.258ZM861.25 368.2C863.17 368.2 864.71 368.82 865.87 370.06C867.03 371.3 867.61 373.07 867.61 375.37V385H864.19V375.73C864.19 374.25 863.81 373.11 863.05 372.31C862.29 371.49 861.25 371.08 859.93 371.08C858.57 371.08 857.48 371.52 856.66 372.4C855.84 373.26 855.43 374.53 855.43 376.21V385H852.01V368.47H855.43V372.1C855.87 370.86 856.61 369.9 857.65 369.22C858.69 368.54 859.89 368.2 861.25 368.2ZM886.85 368.47V385H883.4V381.4C882.98 382.62 882.25 383.57 881.21 384.25C880.17 384.91 878.96 385.24 877.58 385.24C875.66 385.24 874.12 384.62 872.96 383.38C871.8 382.14 871.22 380.37 871.22 378.07V368.47H874.64V377.71C874.64 379.21 875.02 380.37 875.78 381.19C876.54 381.99 877.58 382.39 878.9 382.39C880.26 382.39 881.35 381.95 882.17 381.07C882.99 380.19 883.4 378.91 883.4 377.23V368.47H886.85ZM900.186 368.2C902.106 368.2 903.646 368.82 904.806 370.06C905.966 371.3 906.546 373.07 906.546 375.37V385H903.126V375.73C903.126 374.25 902.746 373.11 901.986 372.31C901.226 371.49 900.186 371.08 898.866 371.08C897.506 371.08 896.416 371.52 895.596 372.4C894.776 373.26 894.366 374.53 894.366 376.21V385H890.946V368.47H894.366V372.1C894.806 370.86 895.546 369.9 896.586 369.22C897.626 368.54 898.826 368.2 900.186 368.2ZM918.856 382.03V385H916.756C914.996 385 913.656 384.58 912.736 383.74C911.836 382.88 911.386 381.46 911.386 379.48V371.38H909.016V368.47H911.386V364.36H914.836V368.47H918.826V371.38H914.836V379.54C914.836 380.48 915.006 381.13 915.346 381.49C915.706 381.85 916.326 382.03 917.206 382.03H918.856ZM937.299 368.47V385H933.849V381.4C933.429 382.62 932.699 383.57 931.659 384.25C930.619 384.91 929.409 385.24 928.029 385.24C926.109 385.24 924.569 384.62 923.409 383.38C922.249 382.14 921.669 380.37 921.669 378.07V368.47H925.089V377.71C925.089 379.21 925.469 380.37 926.229 381.19C926.989 381.99 928.029 382.39 929.349 382.39C930.709 382.39 931.799 381.95 932.619 381.07C933.439 380.19 933.849 378.91 933.849 377.23V368.47H937.299ZM949.705 382.03V385H947.605C945.845 385 944.505 384.58 943.585 383.74C942.685 382.88 942.235 381.46 942.235 379.48V371.38H939.865V368.47H942.235V364.36H945.685V368.47H949.675V371.38H945.685V379.54C945.685 380.48 945.855 381.13 946.195 381.49C946.555 381.85 947.175 382.03 948.055 382.03H949.705ZM959.46 363.67C959.46 363.09 959.66 362.61 960.06 362.23C960.46 361.85 960.99 361.66 961.65 361.66C962.31 361.66 962.84 361.85 963.24 362.23C963.66 362.61 963.87 363.09 963.87 363.67C963.87 364.25 963.66 364.72 963.24 365.08C962.84 365.44 962.31 365.62 961.65 365.62C960.99 365.62 960.46 365.44 960.06 365.08C959.66 364.72 959.46 364.25 959.46 363.67ZM963.36 368.47V385H959.94V368.47H963.36ZM970.919 362.8V385H967.499V362.8H970.919ZM995.727 368.2C997.687 368.2 999.247 368.82 1000.41 370.06C1001.59 371.3 1002.18 373.07 1002.18 375.37V385H998.757V375.73C998.757 374.29 998.397 373.18 997.677 372.4C996.957 371.6 995.967 371.2 994.707 371.2C993.367 371.2 992.297 371.63 991.497 372.49C990.717 373.33 990.327 374.57 990.327 376.21V385H986.907V375.73C986.907 374.29 986.547 373.18 985.827 372.4C985.107 371.6 984.117 371.2 982.857 371.2C981.517 371.2 980.447 371.63 979.647 372.49C978.867 373.33 978.477 374.57 978.477 376.21V385H975.057V368.47H978.477V371.92C978.897 370.72 979.597 369.8 980.577 369.16C981.557 368.52 982.707 368.2 984.027 368.2C985.407 368.2 986.597 368.54 987.597 369.22C988.617 369.9 989.357 370.88 989.817 372.16C990.297 370.92 991.067 369.95 992.127 369.25C993.187 368.55 994.387 368.2 995.727 368.2ZM1021.41 368.47V385H1017.96V381.4C1017.54 382.62 1016.81 383.57 1015.77 384.25C1014.73 384.91 1013.52 385.24 1012.14 385.24C1010.22 385.24 1008.68 384.62 1007.52 383.38C1006.36 382.14 1005.78 380.37 1005.78 378.07V368.47H1009.2V377.71C1009.2 379.21 1009.58 380.37 1010.34 381.19C1011.1 381.99 1012.14 382.39 1013.46 382.39C1014.82 382.39 1015.91 381.95 1016.73 381.07C1017.55 380.19 1017.96 378.91 1017.96 377.23V368.47H1021.41ZM1027.61 382.66C1027.97 383.58 1028.15 384.53 1028.15 385.51C1028.15 386.63 1027.86 387.54 1027.28 388.24C1026.7 388.96 1025.82 389.32 1024.64 389.32V387.94C1025.14 387.94 1025.51 387.81 1025.75 387.55C1025.99 387.29 1026.11 386.85 1026.11 386.23V385.96H1024.37V382.66H1027.61ZM1050.97 380.41H1042.03L1040.41 385H1036.75L1044.55 364.15H1048.48L1056.25 385H1052.59L1050.97 380.41ZM1050.01 377.77L1046.5 367.87L1042.99 377.77H1050.01ZM1062.21 362.8V385H1058.79V362.8H1062.21ZM1069.77 362.8V385H1066.35V362.8H1069.77ZM1080.53 368.26C1082.03 368.26 1083.31 368.63 1084.37 369.37C1085.43 370.11 1086.18 371.09 1086.62 372.31V368.47H1090.04V385H1086.62V381.16C1086.18 382.38 1085.43 383.36 1084.37 384.1C1083.31 384.84 1082.03 385.21 1080.53 385.21C1079.09 385.21 1077.8 384.87 1076.66 384.19C1075.54 383.51 1074.66 382.53 1074.02 381.25C1073.38 379.97 1073.06 378.46 1073.06 376.72C1073.06 375 1073.38 373.5 1074.02 372.22C1074.66 370.94 1075.54 369.96 1076.66 369.28C1077.8 368.6 1079.09 368.26 1080.53 368.26ZM1081.58 371.26C1080.06 371.26 1078.84 371.75 1077.92 372.73C1077.02 373.69 1076.57 375.02 1076.57 376.72C1076.57 378.42 1077.02 379.76 1077.92 380.74C1078.84 381.7 1080.06 382.18 1081.58 382.18C1082.54 382.18 1083.4 381.96 1084.16 381.52C1084.92 381.06 1085.52 380.42 1085.96 379.6C1086.4 378.78 1086.62 377.82 1086.62 376.72C1086.62 375.64 1086.4 374.69 1085.96 373.87C1085.52 373.03 1084.92 372.39 1084.16 371.95C1083.4 371.49 1082.54 371.26 1081.58 371.26ZM1103.39 368.2C1105.31 368.2 1106.85 368.82 1108.01 370.06C1109.17 371.3 1109.75 373.07 1109.75 375.37V385H1106.33V375.73C1106.33 374.25 1105.95 373.11 1105.19 372.31C1104.43 371.49 1103.39 371.08 1102.07 371.08C1100.71 371.08 1099.62 371.52 1098.8 372.4C1097.98 373.26 1097.57 374.53 1097.57 376.21V385H1094.15V362.8H1097.57V372.1C1098.01 370.86 1098.75 369.9 1099.79 369.22C1100.83 368.54 1102.03 368.2 1103.39 368.2ZM1127.41 368.26C1128.91 368.26 1130.19 368.63 1131.25 369.37C1132.31 370.11 1133.06 371.09 1133.5 372.31V368.47H1136.92V385H1133.5V381.16C1133.06 382.38 1132.31 383.36 1131.25 384.1C1130.19 384.84 1128.91 385.21 1127.41 385.21C1125.97 385.21 1124.68 384.87 1123.54 384.19C1122.42 383.51 1121.54 382.53 1120.9 381.25C1120.26 379.97 1119.94 378.46 1119.94 376.72C1119.94 375 1120.26 373.5 1120.9 372.22C1121.54 370.94 1122.42 369.96 1123.54 369.28C1124.68 368.6 1125.97 368.26 1127.41 368.26ZM1128.46 371.26C1126.94 371.26 1125.72 371.75 1124.8 372.73C1123.9 373.69 1123.45 375.02 1123.45 376.72C1123.45 378.42 1123.9 379.76 1124.8 380.74C1125.72 381.7 1126.94 382.18 1128.46 382.18C1129.42 382.18 1130.28 381.96 1131.04 381.52C1131.8 381.06 1132.4 380.42 1132.84 379.6C1133.28 378.78 1133.5 377.82 1133.5 376.72C1133.5 375.64 1133.28 374.69 1132.84 373.87C1132.4 373.03 1131.8 372.39 1131.04 371.95C1130.28 371.49 1129.42 371.26 1128.46 371.26ZM1150.38 385L1144.44 377.65V385H1141.02V362.8H1144.44V375.52L1150.32 368.47H1154.43L1147.23 376.69L1154.61 385H1150.38ZM1163.47 368.26C1164.97 368.26 1166.25 368.63 1167.31 369.37C1168.37 370.11 1169.12 371.09 1169.56 372.31V368.47H1172.98V385H1169.56V381.16C1169.12 382.38 1168.37 383.36 1167.31 384.1C1166.25 384.84 1164.97 385.21 1163.47 385.21C1162.03 385.21 1160.74 384.87 1159.6 384.19C1158.48 383.51 1157.6 382.53 1156.96 381.25C1156.32 379.97 1156 378.46 1156 376.72C1156 375 1156.32 373.5 1156.96 372.22C1157.6 370.94 1158.48 369.96 1159.6 369.28C1160.74 368.6 1162.03 368.26 1163.47 368.26ZM1164.52 371.26C1163 371.26 1161.78 371.75 1160.86 372.73C1159.96 373.69 1159.51 375.02 1159.51 376.72C1159.51 378.42 1159.96 379.76 1160.86 380.74C1161.78 381.7 1163 382.18 1164.52 382.18C1165.48 382.18 1166.34 381.96 1167.1 381.52C1167.86 381.06 1168.46 380.42 1168.9 379.6C1169.34 378.78 1169.56 377.82 1169.56 376.72C1169.56 375.64 1169.34 374.69 1168.9 373.87C1168.46 373.03 1167.86 372.39 1167.1 371.95C1166.34 371.49 1165.48 371.26 1164.52 371.26ZM1186.33 368.2C1188.25 368.2 1189.79 368.82 1190.95 370.06C1192.11 371.3 1192.69 373.07 1192.69 375.37V385H1189.27V375.73C1189.27 374.25 1188.89 373.11 1188.13 372.31C1187.37 371.49 1186.33 371.08 1185.01 371.08C1183.65 371.08 1182.56 371.52 1181.74 372.4C1180.92 373.26 1180.51 374.53 1180.51 376.21V385H1177.09V368.47H1180.51V372.1C1180.95 370.86 1181.69 369.9 1182.73 369.22C1183.77 368.54 1184.97 368.2 1186.33 368.2ZM1224.39 368.2C1226.35 368.2 1227.91 368.82 1229.07 370.06C1230.25 371.3 1230.84 373.07 1230.84 375.37V385H1227.42V375.73C1227.42 374.29 1227.06 373.18 1226.34 372.4C1225.62 371.6 1224.63 371.2 1223.37 371.2C1222.03 371.2 1220.96 371.63 1220.16 372.49C1219.38 373.33 1218.99 374.57 1218.99 376.21V385H1215.57V375.73C1215.57 374.29 1215.21 373.18 1214.49 372.4C1213.77 371.6 1212.78 371.2 1211.52 371.2C1210.18 371.2 1209.11 371.63 1208.31 372.49C1207.53 373.33 1207.14 374.57 1207.14 376.21V385H1203.72V368.47H1207.14V371.92C1207.56 370.72 1208.26 369.8 1209.24 369.16C1210.22 368.52 1211.37 368.2 1212.69 368.2C1214.07 368.2 1215.26 368.54 1216.26 369.22C1217.28 369.9 1218.02 370.88 1218.48 372.16C1218.96 370.92 1219.73 369.95 1220.79 369.25C1221.85 368.55 1223.05 368.2 1224.39 368.2ZM1250.19 375.94C1250.19 376.5 1250.15 376.99 1250.07 377.41H1237.35C1237.41 379.11 1237.88 380.37 1238.76 381.19C1239.64 382.01 1240.73 382.42 1242.03 382.42C1243.17 382.42 1244.13 382.13 1244.91 381.55C1245.71 380.97 1246.2 380.2 1246.38 379.24H1250.04C1249.82 380.4 1249.36 381.43 1248.66 382.33C1247.96 383.23 1247.05 383.94 1245.93 384.46C1244.81 384.96 1243.56 385.21 1242.18 385.21C1240.58 385.21 1239.16 384.87 1237.92 384.19C1236.7 383.51 1235.74 382.53 1235.04 381.25C1234.34 379.97 1233.99 378.46 1233.99 376.72C1233.99 375 1234.34 373.5 1235.04 372.22C1235.74 370.94 1236.7 369.96 1237.92 369.28C1239.16 368.6 1240.58 368.26 1242.18 368.26C1243.8 368.26 1245.21 368.6 1246.41 369.28C1247.63 369.94 1248.56 370.86 1249.2 372.04C1249.86 373.2 1250.19 374.5 1250.19 375.94ZM1246.74 375.85C1246.78 374.77 1246.59 373.87 1246.17 373.15C1245.77 372.41 1245.21 371.87 1244.49 371.53C1243.79 371.17 1243.02 370.99 1242.18 370.99C1240.84 370.99 1239.72 371.4 1238.82 372.22C1237.92 373.04 1237.43 374.25 1237.35 375.85H1246.74ZM1274.16 368.2C1276.12 368.2 1277.68 368.82 1278.84 370.06C1280.02 371.3 1280.61 373.07 1280.61 375.37V385H1277.19V375.73C1277.19 374.29 1276.83 373.18 1276.11 372.4C1275.39 371.6 1274.4 371.2 1273.14 371.2C1271.8 371.2 1270.73 371.63 1269.93 372.49C1269.15 373.33 1268.76 374.57 1268.76 376.21V385H1265.34V375.73C1265.34 374.29 1264.98 373.18 1264.26 372.4C1263.54 371.6 1262.55 371.2 1261.29 371.2C1259.95 371.2 1258.88 371.63 1258.08 372.49C1257.3 373.33 1256.91 374.57 1256.91 376.21V385H1253.49V368.47H1256.91V371.92C1257.33 370.72 1258.03 369.8 1259.01 369.16C1259.99 368.52 1261.14 368.2 1262.46 368.2C1263.84 368.2 1265.03 368.54 1266.03 369.22C1267.05 369.9 1267.79 370.88 1268.25 372.16C1268.73 370.92 1269.5 369.95 1270.56 369.25C1271.62 368.55 1272.82 368.2 1274.16 368.2ZM1299.85 368.47V385H1296.4V381.4C1295.98 382.62 1295.25 383.57 1294.21 384.25C1293.17 384.91 1291.96 385.24 1290.58 385.24C1288.66 385.24 1287.12 384.62 1285.96 383.38C1284.8 382.14 1284.22 380.37 1284.22 378.07V368.47H1287.64V377.71C1287.64 379.21 1288.02 380.37 1288.78 381.19C1289.54 381.99 1290.58 382.39 1291.9 382.39C1293.26 382.39 1294.35 381.95 1295.17 381.07C1295.99 380.19 1296.4 378.91 1296.4 377.23V368.47H1299.85ZM1310.57 368.26C1312.07 368.26 1313.35 368.63 1314.41 369.37C1315.47 370.11 1316.21 371.09 1316.63 372.31V362.8H1320.08V385H1316.63V381.16C1316.21 382.38 1315.47 383.36 1314.41 384.1C1313.35 384.84 1312.07 385.21 1310.57 385.21C1309.13 385.21 1307.84 384.87 1306.7 384.19C1305.58 383.51 1304.7 382.53 1304.06 381.25C1303.42 379.97 1303.1 378.46 1303.1 376.72C1303.1 375 1303.42 373.5 1304.06 372.22C1304.7 370.94 1305.58 369.96 1306.7 369.28C1307.84 368.6 1309.13 368.26 1310.57 368.26ZM1311.62 371.26C1310.1 371.26 1308.88 371.75 1307.96 372.73C1307.06 373.69 1306.61 375.02 1306.61 376.72C1306.61 378.42 1307.06 379.76 1307.96 380.74C1308.88 381.7 1310.1 382.18 1311.62 382.18C1312.58 382.18 1313.44 381.96 1314.2 381.52C1314.96 381.06 1315.56 380.42 1316 379.6C1316.44 378.78 1316.66 377.82 1316.66 376.72C1316.66 375.64 1316.44 374.69 1316 373.87C1315.56 373.03 1314.96 372.39 1314.2 371.95C1313.44 371.49 1312.58 371.26 1311.62 371.26ZM1330.82 368.26C1332.32 368.26 1333.6 368.63 1334.66 369.37C1335.72 370.11 1336.47 371.09 1336.91 372.31V368.47H1340.33V385H1336.91V381.16C1336.47 382.38 1335.72 383.36 1334.66 384.1C1333.6 384.84 1332.32 385.21 1330.82 385.21C1329.38 385.21 1328.09 384.87 1326.95 384.19C1325.83 383.51 1324.95 382.53 1324.31 381.25C1323.67 379.97 1323.35 378.46 1323.35 376.72C1323.35 375 1323.67 373.5 1324.31 372.22C1324.95 370.94 1325.83 369.96 1326.95 369.28C1328.09 368.6 1329.38 368.26 1330.82 368.26ZM1331.87 371.26C1330.35 371.26 1329.13 371.75 1328.21 372.73C1327.31 373.69 1326.86 375.02 1326.86 376.72C1326.86 378.42 1327.31 379.76 1328.21 380.74C1329.13 381.7 1330.35 382.18 1331.87 382.18C1332.83 382.18 1333.69 381.96 1334.45 381.52C1335.21 381.06 1335.81 380.42 1336.25 379.6C1336.69 378.78 1336.91 377.82 1336.91 376.72C1336.91 375.64 1336.69 374.69 1336.25 373.87C1335.81 373.03 1335.21 372.39 1334.45 371.95C1333.69 371.49 1332.83 371.26 1331.87 371.26ZM1353.67 368.2C1355.59 368.2 1357.13 368.82 1358.29 370.06C1359.45 371.3 1360.03 373.07 1360.03 375.37V385H1356.61V375.73C1356.61 374.25 1356.23 373.11 1355.47 372.31C1354.71 371.49 1353.67 371.08 1352.35 371.08C1350.99 371.08 1349.9 371.52 1349.08 372.4C1348.26 373.26 1347.85 374.53 1347.85 376.21V385H1344.43V362.8H1347.85V372.1C1348.29 370.86 1349.03 369.9 1350.07 369.22C1351.11 368.54 1352.31 368.2 1353.67 368.2ZM1373.39 385L1367.45 377.65V385H1364.03V362.8H1367.45V375.52L1373.33 368.47H1377.44L1370.24 376.69L1377.62 385H1373.39ZM1386.48 368.26C1387.98 368.26 1389.26 368.63 1390.32 369.37C1391.38 370.11 1392.13 371.09 1392.57 372.31V368.47H1395.99V385H1392.57V381.16C1392.13 382.38 1391.38 383.36 1390.32 384.1C1389.26 384.84 1387.98 385.21 1386.48 385.21C1385.04 385.21 1383.75 384.87 1382.61 384.19C1381.49 383.51 1380.61 382.53 1379.97 381.25C1379.33 379.97 1379.01 378.46 1379.01 376.72C1379.01 375 1379.33 373.5 1379.97 372.22C1380.61 370.94 1381.49 369.96 1382.61 369.28C1383.75 368.6 1385.04 368.26 1386.48 368.26ZM1387.53 371.26C1386.01 371.26 1384.79 371.75 1383.87 372.73C1382.97 373.69 1382.52 375.02 1382.52 376.72C1382.52 378.42 1382.97 379.76 1383.87 380.74C1384.79 381.7 1386.01 382.18 1387.53 382.18C1388.49 382.18 1389.35 381.96 1390.11 381.52C1390.87 381.06 1391.47 380.42 1391.91 379.6C1392.35 378.78 1392.57 377.82 1392.57 376.72C1392.57 375.64 1392.35 374.69 1391.91 373.87C1391.47 373.03 1390.87 372.39 1390.11 371.95C1389.35 371.49 1388.49 371.26 1387.53 371.26ZM1409.34 368.2C1411.26 368.2 1412.8 368.82 1413.96 370.06C1415.12 371.3 1415.7 373.07 1415.7 375.37V385H1412.28V375.73C1412.28 374.25 1411.9 373.11 1411.14 372.31C1410.38 371.49 1409.34 371.08 1408.02 371.08C1406.66 371.08 1405.57 371.52 1404.75 372.4C1403.93 373.26 1403.52 374.53 1403.52 376.21V385H1400.1V368.47H1403.52V372.1C1403.96 370.86 1404.7 369.9 1405.74 369.22C1406.78 368.54 1407.98 368.2 1409.34 368.2ZM475.753 413.26C477.193 413.26 478.473 413.6 479.593 414.28C480.733 414.96 481.623 415.94 482.263 417.22C482.903 418.5 483.223 420 483.223 421.72C483.223 423.46 482.903 424.97 482.263 426.25C481.623 427.53 480.733 428.51 479.593 429.19C478.473 429.87 477.193 430.21 475.753 430.21C474.253 430.21 472.973 429.84 471.913 429.1C470.853 428.36 470.113 427.38 469.693 426.16V430H466.273V407.8H469.693V417.31C470.113 416.09 470.853 415.11 471.913 414.37C472.973 413.63 474.253 413.26 475.753 413.26ZM474.703 416.26C473.743 416.26 472.883 416.49 472.123 416.95C471.363 417.39 470.763 418.03 470.323 418.87C469.883 419.69 469.663 420.64 469.663 421.72C469.663 422.82 469.883 423.78 470.323 424.6C470.763 425.42 471.363 426.06 472.123 426.52C472.883 426.96 473.743 427.18 474.703 427.18C476.223 427.18 477.443 426.7 478.363 425.74C479.283 424.76 479.743 423.42 479.743 421.72C479.743 420.04 479.283 418.71 478.363 417.73C477.443 416.75 476.223 416.26 474.703 416.26ZM493.147 413.26C494.647 413.26 495.927 413.63 496.987 414.37C498.047 415.11 498.797 416.09 499.237 417.31V413.47H502.657V430H499.237V426.16C498.797 427.38 498.047 428.36 496.987 429.1C495.927 429.84 494.647 430.21 493.147 430.21C491.707 430.21 490.417 429.87 489.277 429.19C488.157 428.51 487.277 427.53 486.637 426.25C485.997 424.97 485.677 423.46 485.677 421.72C485.677 420 485.997 418.5 486.637 417.22C487.277 415.94 488.157 414.96 489.277 414.28C490.417 413.6 491.707 413.26 493.147 413.26ZM494.197 416.26C492.677 416.26 491.457 416.75 490.537 417.73C489.637 418.69 489.187 420.02 489.187 421.72C489.187 423.42 489.637 424.76 490.537 425.74C491.457 426.7 492.677 427.18 494.197 427.18C495.157 427.18 496.017 426.96 496.777 426.52C497.537 426.06 498.137 425.42 498.577 424.6C499.017 423.78 499.237 422.82 499.237 421.72C499.237 420.64 499.017 419.69 498.577 418.87C498.137 418.03 497.537 417.39 496.777 416.95C496.017 416.49 495.157 416.26 494.197 416.26ZM513.391 413.26C514.891 413.26 516.171 413.63 517.231 414.37C518.291 415.11 519.041 416.09 519.481 417.31V413.47H522.901V430.18C522.901 431.72 522.581 433.08 521.941 434.26C521.321 435.46 520.421 436.4 519.241 437.08C518.061 437.76 516.661 438.1 515.041 438.1C512.721 438.1 510.841 437.55 509.401 436.45C507.981 435.35 507.091 433.86 506.731 431.98H510.121C510.401 432.96 510.941 433.72 511.741 434.26C512.541 434.82 513.561 435.1 514.801 435.1C516.161 435.1 517.281 434.68 518.161 433.84C519.041 433 519.481 431.78 519.481 430.18V426.16C519.041 427.38 518.291 428.36 517.231 429.1C516.171 429.84 514.891 430.21 513.391 430.21C511.951 430.21 510.661 429.87 509.521 429.19C508.401 428.51 507.521 427.53 506.881 426.25C506.241 424.97 505.921 423.46 505.921 421.72C505.921 420 506.241 418.5 506.881 417.22C507.521 415.94 508.401 414.96 509.521 414.28C510.661 413.6 511.951 413.26 513.391 413.26ZM514.441 416.26C512.921 416.26 511.701 416.75 510.781 417.73C509.881 418.69 509.431 420.02 509.431 421.72C509.431 423.42 509.881 424.76 510.781 425.74C511.701 426.7 512.921 427.18 514.441 427.18C515.401 427.18 516.261 426.96 517.021 426.52C517.781 426.06 518.381 425.42 518.821 424.6C519.261 423.78 519.481 422.82 519.481 421.72C519.481 420.64 519.261 419.69 518.821 418.87C518.381 418.03 517.781 417.39 517.021 416.95C516.261 416.49 515.401 416.26 514.441 416.26ZM526.526 408.67C526.526 408.09 526.726 407.61 527.126 407.23C527.526 406.85 528.056 406.66 528.716 406.66C529.376 406.66 529.906 406.85 530.306 407.23C530.726 407.61 530.936 408.09 530.936 408.67C530.936 409.25 530.726 409.72 530.306 410.08C529.906 410.44 529.376 410.62 528.716 410.62C528.056 410.62 527.526 410.44 527.126 410.08C526.726 409.72 526.526 409.25 526.526 408.67ZM530.426 413.47V430H527.006V413.47H530.426ZM543.804 413.2C545.724 413.2 547.264 413.82 548.424 415.06C549.584 416.3 550.164 418.07 550.164 420.37V430H546.744V420.73C546.744 419.25 546.364 418.11 545.604 417.31C544.844 416.49 543.804 416.08 542.484 416.08C541.124 416.08 540.034 416.52 539.214 417.4C538.394 418.26 537.984 419.53 537.984 421.21V430H534.564V413.47H537.984V417.1C538.424 415.86 539.164 414.9 540.204 414.22C541.244 413.54 542.444 413.2 543.804 413.2ZM556.114 413.47L561.064 425.62L565.654 413.47H569.464L559.474 437.86H555.664L559.234 429.61L552.274 413.47H556.114ZM578.343 413.26C579.843 413.26 581.123 413.63 582.183 414.37C583.243 415.11 583.993 416.09 584.433 417.31V413.47H587.853V430H584.433V426.16C583.993 427.38 583.243 428.36 582.183 429.1C581.123 429.84 579.843 430.21 578.343 430.21C576.903 430.21 575.613 429.87 574.473 429.19C573.353 428.51 572.473 427.53 571.833 426.25C571.193 424.97 570.873 423.46 570.873 421.72C570.873 420 571.193 418.5 571.833 417.22C572.473 415.94 573.353 414.96 574.473 414.28C575.613 413.6 576.903 413.26 578.343 413.26ZM579.393 416.26C577.873 416.26 576.653 416.75 575.733 417.73C574.833 418.69 574.383 420.02 574.383 421.72C574.383 423.42 574.833 424.76 575.733 425.74C576.653 426.7 577.873 427.18 579.393 427.18C580.353 427.18 581.213 426.96 581.973 426.52C582.733 426.06 583.333 425.42 583.773 424.6C584.213 423.78 584.433 422.82 584.433 421.72C584.433 420.64 584.213 419.69 583.773 418.87C583.333 418.03 582.733 417.39 581.973 416.95C581.213 416.49 580.353 416.26 579.393 416.26ZM600.848 410.62C600.188 410.62 599.648 410.44 599.228 410.08C598.828 409.72 598.628 409.25 598.628 408.67C598.628 408.09 598.828 407.61 599.228 407.23C599.648 406.85 600.188 406.66 600.848 406.66C601.508 406.66 602.038 406.85 602.438 407.23C602.838 407.61 603.038 408.09 603.038 408.67C603.038 409.25 602.838 409.72 602.438 410.08C602.038 410.44 601.508 410.62 600.848 410.62ZM596.048 434.86H597.218C597.878 434.86 598.358 434.71 598.658 434.41C598.978 434.13 599.138 433.64 599.138 432.94V413.47H602.588V432.97C602.588 436.23 600.948 437.86 597.668 437.86H596.048V434.86ZM613.294 413.26C614.794 413.26 616.074 413.63 617.134 414.37C618.194 415.11 618.944 416.09 619.384 417.31V413.47H622.804V430H619.384V426.16C618.944 427.38 618.194 428.36 617.134 429.1C616.074 429.84 614.794 430.21 613.294 430.21C611.854 430.21 610.564 429.87 609.424 429.19C608.304 428.51 607.424 427.53 606.784 426.25C606.144 424.97 605.824 423.46 605.824 421.72C605.824 420 606.144 418.5 606.784 417.22C607.424 415.94 608.304 414.96 609.424 414.28C610.564 413.6 611.854 413.26 613.294 413.26ZM614.344 416.26C612.824 416.26 611.604 416.75 610.684 417.73C609.784 418.69 609.334 420.02 609.334 421.72C609.334 423.42 609.784 424.76 610.684 425.74C611.604 426.7 612.824 427.18 614.344 427.18C615.304 427.18 616.164 426.96 616.924 426.52C617.684 426.06 618.284 425.42 618.724 424.6C619.164 423.78 619.384 422.82 619.384 421.72C619.384 420.64 619.164 419.69 618.724 418.87C618.284 418.03 617.684 417.39 616.924 416.95C616.164 416.49 615.304 416.26 614.344 416.26ZM630.328 407.8V430H626.908V407.8H630.328ZM641.096 413.26C642.596 413.26 643.876 413.63 644.936 414.37C645.996 415.11 646.746 416.09 647.186 417.31V413.47H650.606V430H647.186V426.16C646.746 427.38 645.996 428.36 644.936 429.1C643.876 429.84 642.596 430.21 641.096 430.21C639.656 430.21 638.366 429.87 637.226 429.19C636.106 428.51 635.226 427.53 634.586 426.25C633.946 424.97 633.626 423.46 633.626 421.72C633.626 420 633.946 418.5 634.586 417.22C635.226 415.94 636.106 414.96 637.226 414.28C638.366 413.6 639.656 413.26 641.096 413.26ZM642.146 416.26C640.626 416.26 639.406 416.75 638.486 417.73C637.586 418.69 637.136 420.02 637.136 421.72C637.136 423.42 637.586 424.76 638.486 425.74C639.406 426.7 640.626 427.18 642.146 427.18C643.106 427.18 643.966 426.96 644.726 426.52C645.486 426.06 646.086 425.42 646.526 424.6C646.966 423.78 647.186 422.82 647.186 421.72C647.186 420.64 646.966 419.69 646.526 418.87C646.086 418.03 645.486 417.39 644.726 416.95C643.966 416.49 643.106 416.26 642.146 416.26ZM663.951 413.2C665.871 413.2 667.411 413.82 668.571 415.06C669.731 416.3 670.311 418.07 670.311 420.37V430H666.891V420.73C666.891 419.25 666.511 418.11 665.751 417.31C664.991 416.49 663.951 416.08 662.631 416.08C661.271 416.08 660.181 416.52 659.361 417.4C658.541 418.26 658.131 419.53 658.131 421.21V430H654.711V413.47H658.131V417.1C658.571 415.86 659.311 414.9 660.351 414.22C661.391 413.54 662.591 413.2 663.951 413.2ZM690.701 430L684.761 422.65V430H681.341V407.8H684.761V420.52L690.641 413.47H694.751L687.551 421.69L694.931 430H690.701ZM712.522 420.94C712.522 421.5 712.482 421.99 712.402 422.41H699.682C699.742 424.11 700.212 425.37 701.092 426.19C701.972 427.01 703.062 427.42 704.362 427.42C705.502 427.42 706.462 427.13 707.242 426.55C708.042 425.97 708.532 425.2 708.712 424.24H712.372C712.152 425.4 711.692 426.43 710.992 427.33C710.292 428.23 709.382 428.94 708.262 429.46C707.142 429.96 705.892 430.21 704.512 430.21C702.912 430.21 701.492 429.87 700.252 429.19C699.032 428.51 698.072 427.53 697.372 426.25C696.672 424.97 696.322 423.46 696.322 421.72C696.322 420 696.672 418.5 697.372 417.22C698.072 415.94 699.032 414.96 700.252 414.28C701.492 413.6 702.912 413.26 704.512 413.26C706.132 413.26 707.542 413.6 708.742 414.28C709.962 414.94 710.892 415.86 711.532 417.04C712.192 418.2 712.522 419.5 712.522 420.94ZM709.072 420.85C709.112 419.77 708.922 418.87 708.502 418.15C708.102 417.41 707.542 416.87 706.822 416.53C706.122 416.17 705.352 415.99 704.512 415.99C703.172 415.99 702.052 416.4 701.152 417.22C700.252 418.04 699.762 419.25 699.682 420.85H709.072ZM728.285 413.26C730.225 413.26 731.775 413.76 732.935 414.76C734.115 415.74 734.835 417.06 735.095 418.72H731.855C731.715 417.82 731.325 417.1 730.685 416.56C730.065 416 729.235 415.72 728.195 415.72C727.335 415.72 726.665 415.93 726.185 416.35C725.725 416.75 725.495 417.3 725.495 418C725.495 418.52 725.665 418.94 726.005 419.26C726.345 419.58 726.765 419.83 727.265 420.01C727.785 420.19 728.515 420.39 729.455 420.61C730.695 420.89 731.695 421.18 732.455 421.48C733.235 421.78 733.895 422.26 734.435 422.92C734.995 423.56 735.275 424.44 735.275 425.56C735.275 426.94 734.745 428.06 733.685 428.92C732.645 429.78 731.235 430.21 729.455 430.21C727.395 430.21 725.725 429.73 724.445 428.77C723.185 427.81 722.425 426.47 722.165 424.75H725.495C725.595 425.65 725.995 426.38 726.695 426.94C727.395 427.5 728.315 427.78 729.455 427.78C730.275 427.78 730.915 427.57 731.375 427.15C731.855 426.71 732.095 426.16 732.095 425.5C732.095 424.92 731.915 424.46 731.555 424.12C731.195 423.78 730.745 423.52 730.205 423.34C729.665 423.14 728.925 422.94 727.985 422.74C726.785 422.46 725.805 422.18 725.045 421.9C724.305 421.62 723.665 421.17 723.125 420.55C722.605 419.91 722.345 419.05 722.345 417.97C722.345 416.57 722.865 415.44 723.905 414.58C724.965 413.7 726.425 413.26 728.285 413.26ZM753.945 413.47V430H750.495V426.4C750.075 427.62 749.345 428.57 748.305 429.25C747.265 429.91 746.055 430.24 744.675 430.24C742.755 430.24 741.215 429.62 740.055 428.38C738.895 427.14 738.315 425.37 738.315 423.07V413.47H741.735V422.71C741.735 424.21 742.115 425.37 742.875 426.19C743.635 426.99 744.675 427.39 745.995 427.39C747.355 427.39 748.445 426.95 749.265 426.07C750.085 425.19 750.495 423.91 750.495 422.23V413.47H753.945ZM761.461 416.71C762.021 415.63 762.821 414.78 763.861 414.16C764.901 413.52 766.101 413.2 767.461 413.2V416.92H766.441C764.941 416.92 763.731 417.29 762.811 418.03C761.911 418.75 761.461 419.95 761.461 421.63V430H758.041V413.47H761.461V416.71ZM776.653 413.26C778.153 413.26 779.433 413.63 780.493 414.37C781.553 415.11 782.303 416.09 782.743 417.31V413.47H786.163V430.18C786.163 431.72 785.843 433.08 785.203 434.26C784.583 435.46 783.683 436.4 782.503 437.08C781.323 437.76 779.923 438.1 778.303 438.1C775.983 438.1 774.103 437.55 772.663 436.45C771.243 435.35 770.353 433.86 769.993 431.98H773.383C773.663 432.96 774.203 433.72 775.003 434.26C775.803 434.82 776.823 435.1 778.063 435.1C779.423 435.1 780.543 434.68 781.423 433.84C782.303 433 782.743 431.78 782.743 430.18V426.16C782.303 427.38 781.553 428.36 780.493 429.1C779.433 429.84 778.153 430.21 776.653 430.21C775.213 430.21 773.923 429.87 772.783 429.19C771.663 428.51 770.783 427.53 770.143 426.25C769.503 424.97 769.183 423.46 769.183 421.72C769.183 420 769.503 418.5 770.143 417.22C770.783 415.94 771.663 414.96 772.783 414.28C773.923 413.6 775.213 413.26 776.653 413.26ZM777.703 416.26C776.183 416.26 774.963 416.75 774.043 417.73C773.143 418.69 772.693 420.02 772.693 421.72C772.693 423.42 773.143 424.76 774.043 425.74C774.963 426.7 776.183 427.18 777.703 427.18C778.663 427.18 779.523 426.96 780.283 426.52C781.043 426.06 781.643 425.42 782.083 424.6C782.523 423.78 782.743 422.82 782.743 421.72C782.743 420.64 782.523 419.69 782.083 418.87C781.643 418.03 781.043 417.39 780.283 416.95C779.523 416.49 778.663 416.26 777.703 416.26ZM796.897 413.26C798.397 413.26 799.677 413.63 800.737 414.37C801.797 415.11 802.547 416.09 802.987 417.31V413.47H806.407V430H802.987V426.16C802.547 427.38 801.797 428.36 800.737 429.1C799.677 429.84 798.397 430.21 796.897 430.21C795.457 430.21 794.167 429.87 793.027 429.19C791.907 428.51 791.027 427.53 790.387 426.25C789.747 424.97 789.427 423.46 789.427 421.72C789.427 420 789.747 418.5 790.387 417.22C791.027 415.94 791.907 414.96 793.027 414.28C794.167 413.6 795.457 413.26 796.897 413.26ZM797.947 416.26C796.427 416.26 795.207 416.75 794.287 417.73C793.387 418.69 792.937 420.02 792.937 421.72C792.937 423.42 793.387 424.76 794.287 425.74C795.207 426.7 796.427 427.18 797.947 427.18C798.907 427.18 799.767 426.96 800.527 426.52C801.287 426.06 801.887 425.42 802.327 424.6C802.767 423.78 802.987 422.82 802.987 421.72C802.987 420.64 802.767 419.69 802.327 418.87C801.887 418.03 801.287 417.39 800.527 416.95C799.767 416.49 798.907 416.26 797.947 416.26ZM816.613 417.91C816.613 414.07 817.343 410.64 818.803 407.62C820.283 404.6 822.223 402.16 824.623 400.3H827.953V400.66C822.613 405.02 819.943 410.77 819.943 417.91C819.943 425.05 822.613 430.82 827.953 435.22V435.55H824.623C822.223 433.67 820.283 431.23 818.803 428.23C817.343 425.21 816.613 421.77 816.613 417.91ZM846.091 408.82V430H842.641V420.49H832.681V430H829.261V408.82H832.681V417.7H842.641V408.82H846.091ZM861.368 430L856.088 421.54H853.658V430H850.238V408.82H857.708C860.128 408.82 861.958 409.41 863.198 410.59C864.458 411.77 865.088 413.33 865.088 415.27C865.088 416.93 864.618 418.29 863.678 419.35C862.758 420.41 861.418 421.09 859.658 421.39L865.208 430H861.368ZM853.658 419.11H857.438C860.198 419.11 861.578 417.89 861.578 415.45C861.578 414.29 861.238 413.39 860.558 412.75C859.898 412.09 858.858 411.76 857.438 411.76H853.658V419.11ZM897.159 409.15V430H893.709V414.37L887.679 430H884.679L878.619 414.37V430H875.199V409.15H879.339L886.239 425.8L893.019 409.15H897.159ZM916.513 413.47V430H913.063V426.4C912.643 427.62 911.913 428.57 910.873 429.25C909.833 429.91 908.623 430.24 907.243 430.24C905.323 430.24 903.783 429.62 902.623 428.38C901.463 427.14 900.883 425.37 900.883 423.07V413.47H904.303V422.71C904.303 424.21 904.683 425.37 905.443 426.19C906.203 426.99 907.243 427.39 908.563 427.39C909.923 427.39 911.013 426.95 911.833 426.07C912.653 425.19 913.063 423.91 913.063 422.23V413.47H916.513ZM926.039 413.26C927.979 413.26 929.529 413.76 930.689 414.76C931.869 415.74 932.589 417.06 932.849 418.72H929.609C929.469 417.82 929.079 417.1 928.439 416.56C927.819 416 926.989 415.72 925.949 415.72C925.089 415.72 924.419 415.93 923.939 416.35C923.479 416.75 923.249 417.3 923.249 418C923.249 418.52 923.419 418.94 923.759 419.26C924.099 419.58 924.519 419.83 925.019 420.01C925.539 420.19 926.269 420.39 927.209 420.61C928.449 420.89 929.449 421.18 930.209 421.48C930.989 421.78 931.649 422.26 932.189 422.92C932.749 423.56 933.029 424.44 933.029 425.56C933.029 426.94 932.499 428.06 931.439 428.92C930.399 429.78 928.989 430.21 927.209 430.21C925.149 430.21 923.479 429.73 922.199 428.77C920.939 427.81 920.179 426.47 919.919 424.75H923.249C923.349 425.65 923.749 426.38 924.449 426.94C925.149 427.5 926.069 427.78 927.209 427.78C928.029 427.78 928.669 427.57 929.129 427.15C929.609 426.71 929.849 426.16 929.849 425.5C929.849 424.92 929.669 424.46 929.309 424.12C928.949 423.78 928.499 423.52 927.959 423.34C927.419 423.14 926.679 422.94 925.739 422.74C924.539 422.46 923.559 422.18 922.799 421.9C922.059 421.62 921.419 421.17 920.879 420.55C920.359 419.91 920.099 419.05 920.099 417.97C920.099 416.57 920.619 415.44 921.659 414.58C922.719 413.7 924.179 413.26 926.039 413.26ZM939.879 407.8V430H936.459V407.8H939.879ZM943.537 408.67C943.537 408.09 943.737 407.61 944.137 407.23C944.537 406.85 945.067 406.66 945.727 406.66C946.387 406.66 946.917 406.85 947.317 407.23C947.737 407.61 947.947 408.09 947.947 408.67C947.947 409.25 947.737 409.72 947.317 410.08C946.917 410.44 946.387 410.62 945.727 410.62C945.067 410.62 944.537 410.44 944.137 410.08C943.737 409.72 943.537 409.25 943.537 408.67ZM947.437 413.47V430H944.017V413.47H947.437ZM972.246 413.2C974.206 413.2 975.766 413.82 976.926 415.06C978.106 416.3 978.696 418.07 978.696 420.37V430H975.276V420.73C975.276 419.29 974.916 418.18 974.196 417.4C973.476 416.6 972.486 416.2 971.226 416.2C969.886 416.2 968.816 416.63 968.016 417.49C967.236 418.33 966.846 419.57 966.846 421.21V430H963.426V420.73C963.426 419.29 963.066 418.18 962.346 417.4C961.626 416.6 960.636 416.2 959.376 416.2C958.036 416.2 956.966 416.63 956.166 417.49C955.386 418.33 954.996 419.57 954.996 421.21V430H951.576V413.47H954.996V416.92C955.416 415.72 956.116 414.8 957.096 414.16C958.076 413.52 959.226 413.2 960.546 413.2C961.926 413.2 963.116 413.54 964.116 414.22C965.136 414.9 965.876 415.88 966.336 417.16C966.816 415.92 967.586 414.95 968.646 414.25C969.706 413.55 970.906 413.2 972.246 413.2ZM991.239 417.91C991.239 421.75 990.499 425.19 989.019 428.23C987.559 431.25 985.629 433.69 983.229 435.55H979.899V435.22C985.239 430.84 987.909 425.07 987.909 417.91C987.909 410.75 985.239 405 979.899 400.66V400.3H983.229C985.629 402.14 987.559 404.58 989.019 407.62C990.499 410.64 991.239 414.07 991.239 417.91ZM996.657 405.88C996.937 406.82 997.077 407.82 997.077 408.88C997.077 410.08 996.787 411 996.207 411.64C995.647 412.28 994.817 412.6 993.717 412.6V411.16C994.217 411.16 994.587 411.02 994.827 410.74C995.067 410.44 995.187 410 995.187 409.42V408.79H993.567V405.88H996.657ZM1001.19 405.88C1001.49 406.98 1001.64 407.98 1001.64 408.88C1001.64 410.08 1001.35 411 1000.77 411.64C1000.19 412.28 999.347 412.6 998.247 412.6V411.16C998.767 411.16 999.137 411.02 999.357 410.74C999.597 410.46 999.717 410.02 999.717 409.42V408.79H998.097V405.88H1001.19Z" fill="#A8A8A8"></path></svg> 